<?xml version="1.0" standalone="no"?>
<!DOCTYPE svg PUBLIC "-//W3C//DTD SVG 1.1//EN" "http://www.w3.org/Graphics/SVG/1.1/DTD/svg11.dtd" >
<svg xmlns="http://www.w3.org/2000/svg" xmlns:xlink="http://www.w3.org/1999/xlink" version="1.1">
<metadata>
Created by FontForge 20200427 at Fri Mar 15 04:09:22 2019
 By www
Copyright (c) 2019, zuzulgo
</metadata>
<defs>
<font id="BagindaScript" horiz-adv-x="691" >
  <font-face 
    font-family="Baginda Script"
    font-weight="400"
    font-stretch="normal"
    units-per-em="1000"
    panose-1="3 0 5 3 0 0 0 0 0 0"
    ascent="714"
    descent="-286"
    x-height="147"
    cap-height="590"
    bbox="-156.167 -292 827 704"
    underline-thickness="71"
    underline-position="-212"
    unicode-range="U+0020-E102"
  />
<missing-glyph horiz-adv-x="500" 
d="M50 0v476h400v-476h-400zM100 50h300v376h-300v-376z" />
    <glyph glyph-name="lig.ff" unicode="ff" horiz-adv-x="388" 
d="M120 487q-9 0 -13 -9q-30 -71 -60 -166q-53 -166 -62 -274l-15 -1q-6 0 -10 -4t-4 -10q0 -7 7 -12q14 -10 20 -15q-1 -47 -1 -79q0 -50 2 -79q3 -53 13 -69q5 -7 8 -9q7 -4 14 -2q8 1 17 10q4 4 7.5 8t6.5 8.5t4 6.5q27 32 27 80q0 75 -69 137q0 1 0.5 3t0.5 3q30 5 45 9
q62 16 103 51l-3 -30l-20 -8q-8 -3 -8 -13q0 -8 6 -12q2 -2 6.5 -5t8 -5.5t6.5 -4.5q-1 -47 -1 -79q0 -50 2 -79q3 -54 12 -69q4 -7 9 -9q7 -3 13 -2q8 1 17 10q4 4 7.5 8t6.5 8.5t4 6.5q27 32 27 80q0 75 -69 137q0 2 0.5 8t0.5 8q36 15 69 28q113 44 141 52q11 4 11 14
q0 14 -14 14h-4q-27 -7 -144 -53q-16 -7 -32 -13.5t-25 -9.5q1 15 5 52l1 2q52 71 96 175q25 58 29 97q1 11 1 15q0 14 -5 23q-9 17 -32 19h-1h-1q-16 -1 -27 -16q-12 -15 -20 -33q-17 -35 -36 -104q-20 -76 -32 -166q-35 -45 -116 -69q-13 -4 -35 -8q11 113 59 261
q13 41 28 82t24 61l8 20q1 2 1 6q0 14 -15 14zM283 411q5 0 6 -4q4 -5 2 -22q-3 -29 -27 -88q-22 -54 -60 -118q8 44 22 100q16 60 34 98q10 20 16 27zM11 -31q42 -46 42 -97q0 -38 -21 -63q-5 -6 -13 -16q-5 22 -6 46q-2 35 -2 87v43zM185 -31q41 -46 41 -96q0 -39 -21 -64
q-5 -6 -13 -16q-5 22 -6 46q-2 24 -2 66q0 26 1 64z" />
    <glyph glyph-name="lig.ll" unicode="ll" horiz-adv-x="414" 
d="M120 487q-8 0 -12 -8q-30 -60 -59 -140q-51 -141 -51 -239q0 -14 1 -27q5 -57 31 -72q13 -8 30 -5q14 3 29 12q36 21 85 76v-11q5 -57 42 -73q12 -5 26 -5q21 0 51 12q37 15 75.5 44t63.5 57q4 4 4 10t-4.5 10t-10.5 4q-7 0 -10 -5q-22 -25 -59 -52.5t-69 -40.5
q-22 -10 -40 -10q-10 0 -16 3q-20 8 -24 48q-1 14 -1 44q39 72 81 171q35 82 43 124q4 17 4 30q0 9 -2 17q-4 13 -10 18q-10 8 -22 8q-14 0 -29 -15q-10 -10 -22 -32q-22 -42 -39 -102q-32 -112 -33 -212q-67 -75 -98 -93q-12 -7 -20 -9q-6 -1 -11 2q-13 7 -17 49
q-1 11 -1 22q0 91 50 232q13 35 27.5 69.5t22.5 50.5l8 17q1 2 1 7q0 6 -4 10t-10 4h-1zM296 458h3q0 -1 1 -4q1 -4 1 -9q0 -11 -3 -25q-8 -44 -41 -119q-23 -53 -51 -110q7 70 27 139q17 61 37 96q8 16 18 26z" />
    <glyph glyph-name="lig.ss" unicode="ss" horiz-adv-x="439" 
d="M53 185q-1 0 -3 -0.5l-2 -0.5q-14 -5 -27 -15q-23 -18 -23 -44q0 -5 1 -10q2 -11 23 -78q-22 -19 -33 -34q-10 -16 -10 -28q0 -4 1 -8q4 -18 29 -27q18 -7 30 -4q14 3 21 17q5 9 5 21q0 9 -5 31q-1 3 -2.5 11t-2.5 11q16 12 25 18q44 31 132 79q0 -6 1 -9q5 -24 22 -66
l-16 -16q-35 -38 -38 -67q0 -13 2 -16q5 -9 13 -12q6 -3 13 -3q9 0 23 5q33 11 42 35q4 10 4 22t-4 27q-2 9 -5 17q80 63 172 63q6 0 10 4t4 10t-4 10t-10 4q-98 0 -183 -63q-14 36 -17 52q-4 15 11 26q7 4 21 11q8 4 8 12q0 6 -4 10.5t-10 4.5q-1 0 -3 -0.5l-2 -0.5
q-12 -4 -24 -13q-121 -66 -174 -102q-3 -2 -9 -6.5t-9 -6.5q-13 38 -19 65q-4 14 12 26l18 10q10 3 10 13q0 6 -4 10.5t-10 4.5zM246 20l0.5 -1t0.5 -2q3 -11 3 -19q0 -7 -2 -12q-6 -13 -25 -19q-8 -3 -14 -3q0 6 8.5 20.5t22.5 29.5zM30 6q2 -4 2 -7q3 -12 3 -24
q0 -7 -1 -10l-1 -1q-7 0 -15 3q-11 3 -11 7q0 6 5 13q5 8 18 19z" />
    <glyph glyph-name="lig.tt" unicode="tt" horiz-adv-x="299" 
d="M285 487q-10 0 -13 -10q-20 -62 -43 -147h-153q12 35 26.5 69t22.5 50l8 17q2 4 2 7q0 6 -4 10t-10 4h-1q-8 0 -12 -8q-31 -60 -60 -140l-3 -9h-80h-1q-6 0 -10 -4t-4 -10t4 -10.5t10 -4.5h1h71q-38 -116 -38 -200q0 -15 1 -28q5 -57 31 -72q10 -6 21 -6q17 0 40 13
q29 16 77 66q-20 -101 -20 -169q0 -15 1 -28q1 -5 5 -9.5t9 -4.5q6 0 10.5 4.5t4.5 10.5v1q-1 10 -1 22q0 108 56 331q9 36 18 69h102q6 0 10.5 4.5t4.5 10.5q0 14 -15 14h-94l40 138l1 2v3q0 14 -15 14zM66 301h156q-2 -8 -7.5 -29t-8.5 -33q-16 -66 -26 -110l-2 -2
q-68 -76 -101 -94q-16 -9 -26 -9q-4 0 -7 2q-13 9 -17 49q-1 12 -1 25q0 79 40 201z" />
    <glyph glyph-name=".notdef" horiz-adv-x="500" 
d="M50 0v476h400v-476h-400zM100 50h300v376h-300v-376z" />
    <glyph glyph-name=".null" horiz-adv-x="0" 
 />
    <glyph glyph-name="nonmarkingreturn" horiz-adv-x="333" 
 />
    <glyph glyph-name="space" unicode=" " horiz-adv-x="250" 
 />
    <glyph glyph-name="exclam" unicode="!" horiz-adv-x="183" 
d="M119 580q-14 0 -14 -14q-3 -261 -42 -500v-3q0 -14 14 -14q12 0 14 12q17 108 27.5 234t12.5 198l2 72v1q0 14 -14 14zM70 12q-9 0 -13 -11l-6 -21l-1 -2v-2q0 -15 14 -15q10 0 14 11l6 21q0 1 0.5 2t0.5 2q0 15 -14 15h-1z" />
    <glyph glyph-name="quotedbl" unicode="&#x22;" horiz-adv-x="216" 
d="M92 516h-1q-11 0 -13 -12q-15 -62 -25 -75q-3 -3 -3 -8q0 -15 14 -15q8 0 12 6q15 19 29 86l1 1v2q0 15 -14 15zM152 516q-12 0 -14 -12q-15 -62 -25 -75q-3 -3 -3 -8q0 -6 4.5 -10.5t10.5 -4.5q7 0 11 6q16 21 30 86v3q0 15 -14 15z" />
    <glyph glyph-name="numbersign" unicode="#" horiz-adv-x="532" 
d="M359 362q-5 0 -9 -3.5t-5 -8.5q-12 -55 -23 -132q-62 -8 -132 -26l17 110v3q0 6 -4 10t-10 4h-1q-4 0 -8.5 -3.5t-5.5 -8.5q-9 -50 -18 -123q-36 -10 -81 -31q-9 -4 -9 -13q0 -6 4 -10t10 -4q4 0 6 1q27 13 67 25q-7 -66 -11 -120q-47 -13 -88 -30q-8 -3 -8 -14
q0 -6 4 -10t10 -4q4 0 6 1q46 19 74 27q-2 -50 -2 -92v-33q0 -6 4 -10t10 -4t10 4.5t4 10.5v33q0 50 3 99q66 17 134 25v-21q0 -59 7 -107q2 -12 14 -12q14 0 14 14v2q-6 41 -6 99v28q41 4 79 4l30 -1h1q14 0 14 15q0 14 -13 14h-35q-30 0 -75 -3q3 61 11 125l120 8
q14 0 14 15q0 14 -14 14q-48 0 -116 -8l21 123v4q0 14 -14 14zM319 188q-8 -64 -11 -124q-62 -6 -133 -24q4 54 11 121q55 16 133 27z" />
    <glyph glyph-name="dollar" unicode="$" horiz-adv-x="392" 
d="M227 487h-1q-6 0 -10 -4t-4 -10q-1 -35 -5 -90q-37 -17 -66 -39q-91 -69 -91 -138q0 -41 39 -68q32 -22 95 -31q-5 -56 -14 -127q-2 0 -5.5 -1t-5.5 -1q-7 -1 -14 -1q-13 0 -20 3q-11 5 -12 17q-2 12 -14 12q-6 0 -10.5 -4t-4.5 -10q0 -1 0.5 -1t0.5 -1q5 -30 28 -39
q14 -6 31 -6q9 0 19 2h3q-6 -44 -10 -70v-2q0 -6 4 -10.5t10 -4.5q12 0 14 13q4 26 12 82q34 11 73 37q26 18 40 36t14 37q0 4 -1 8q-5 25 -33 39q-27 13 -73 17q10 111 18 230q24 8 41 8q6 0 11 -1q21 -4 26 -28q2 -7 2 -16q0 -30 -17 -76q-1 -1 -1 -5q0 -14 14 -14
q10 0 14 9q18 51 18 85q0 12 -2 23q-9 42 -47 50q-12 2 -18 2q-23 0 -39 -5l5 78v1q0 14 -14 14zM205 350q-7 -109 -18 -215q-53 8 -82 27q-26 17 -26 44q0 24 22.5 56.5t56.5 58.5q24 17 47 29zM213 103q42 -4 63 -14q16 -7 18 -18q2 -9 -8 -23q-9 -13 -33 -30
q-27 -18 -53 -28q5 37 13 113z" />
    <glyph glyph-name="percent" unicode="%" horiz-adv-x="347" 
d="M283 487q-9 0 -13 -7q-16 -27 -42 -74t-84.5 -173.5t-92.5 -230.5l-1 -2v-3q0 -14 14 -14q11 0 14 10q33 102 87.5 220t92.5 185l37 67q2 4 2 8q0 14 -14 14zM160 487h-1h-1q-18 -2 -35 -10q-16 -8 -23 -20q-5 -8 -5 -18q0 -8 4 -17q9 -21 33 -25q5 -1 10 -1q16 0 29 7
q23 12 23 36q0 22 -25 44q-4 4 -9 4zM155 457q10 -10 10 -19q0 -5 -7 -9q-11 -5 -21 -4q-9 1 -12 8q-2 5 0 9.5t11 8.5q10 4 19 6zM211 71h-2q-18 -2 -35 -10q-14 -7 -22 -20q-6 -9 -6 -19q0 -8 4 -16q9 -21 33 -25q5 -1 10 -1q15 0 29 7q23 12 23 36q0 22 -25 44q-4 4 -9 4
zM206 41q10 -10 10 -19q0 -5 -7 -9q-11 -5 -21 -4q-9 1 -12 8q-2 5 0 10q2 3 11 8q10 4 19 6z" />
    <glyph glyph-name="ampersand" unicode="&#x26;" horiz-adv-x="440" 
d="M263 496h-5q-16 -2 -34 -10q-83 -35 -96 -130q-2 -16 -2 -34q0 -42 13 -98q-50 -91 -70 -146q-19 -52 -19 -92q0 -46 29 -72q11 -10 25 -10q9 0 18 4q18 8 40 30q33 33 65 82q70 -112 142 -154q4 -2 7 -2q14 0 14 14q0 8 -7 12q-65 38 -138 157q23 36 47 78t36 66l13 24
q1 2 1 6q0 15 -14 15q-8 0 -13 -9q-39 -76 -86 -152q-31 56 -47 104q-6 18 -13 41q4 8 13.5 24t14.5 24q79 138 90 167q5 13 7 28q2 17 -9 26q-8 7 -20 7h-2zM264 468h1v-3q0 -5 -5 -20q-13 -35 -88 -162l-12 -21q-5 29 -5 56q0 18 2 34q11 79 78 107q18 7 26 9h3zM150 185
q1 -3 2.5 -8t2.5 -8q22 -62 56 -122q-38 -58 -69 -89q-18 -18 -31 -23q-8 -3 -13 1q-19 18 -19 50q0 34 17 82q20 55 54 117z" />
    <glyph glyph-name="quotesingle" unicode="'" horiz-adv-x="156" 
d="M92 516q-12 0 -14 -12q-15 -62 -25 -75q-3 -3 -3 -8q0 -15 14 -15q8 0 12 6q16 21 30 86v3q0 15 -14 15z" />
    <glyph glyph-name="parenleft" unicode="(" horiz-adv-x="372" 
d="M309 577q-4 0 -6 -1q-74 -37 -138.5 -136t-94.5 -221q-20 -80 -20 -154q0 -193 127 -298q3 -3 9 -3t10.5 4t4.5 10q0 7 -6 11q-117 96 -117 275q0 71 20 148q29 115 91 211t126 127q8 4 8 13q0 6 -4 10t-10 4z" />
    <glyph glyph-name="parenright" unicode=")" horiz-adv-x="336" 
d="M186 577q-13 0 -13 -14q0 -7 3 -10q40 -44 60.5 -120t20.5 -167q0 -60 -9 -121q-19 -124 -70 -222.5t-120 -131.5q-8 -3 -8 -13q0 -6 4 -10t10 -4q4 0 6 1q79 39 132.5 142t73.5 234q10 67 10 132q0 201 -88 299q-3 5 -11 5h-1z" />
    <glyph glyph-name="asterisk" unicode="*" horiz-adv-x="211" 
d="M105 527q-10 0 -10 -10v-22q-3 2 -8.5 7.5l-8.5 8.5q-2 2 -7 2q-10 0 -10 -9q0 -4 3 -7q10 -10 15 -14l-19 1h-1q-9 0 -9 -10t9 -10h23l-16 -16q-3 -3 -3 -7q0 -10 10 -10q4 0 7 3l15 16q0 -1 -1 -9.5t-2 -12.5v-2q0 -10 10 -10q7 0 9 7q2 9 4 27q4 -4 12 -16q5 -5 9 -5
q9 0 9 10q0 4 -1 5q-5 7 -15 19h22q10 0 10 10q0 9 -10 9l-23 1l16 16q3 3 3 7q0 9 -9 9h-1q-3 0 -6 -3l-16 -16q0 4 -0.5 11t-0.5 10q0 10 -9 10z" />
    <glyph glyph-name="plus" unicode="+" horiz-adv-x="344" 
d="M171 278q-11 0 -13 -11q-6 -36 -8 -86l-85 3h-1q-5 0 -9.5 -4t-4.5 -10q0 -14 14 -14l86 -4q0 -18 0.5 -45.5t0.5 -36.5q0 -14 14 -14t14 14v1v80l100 -4h1q14 0 14 15q0 14 -14 14l-101 4q2 57 7 81v3q0 14 -14 14h-1z" />
    <glyph glyph-name="comma" unicode="," horiz-adv-x="179" 
d="M114 12q-12 0 -14 -12q-7 -32 -24 -47l-16 -10q-10 -4 -10 -14q0 -14 15 -14q1 0 3 0.5l2 0.5q12 4 25 16q25 23 33 62v1q1 1 1 2q0 6 -4.5 10.5t-10.5 4.5z" />
    <glyph glyph-name="hyphen" unicode="-" horiz-adv-x="333" 
d="M64 170q-14 0 -14 -14t14 -14h204h1q14 0 14 14t-14 14h-1h-204z" />
    <glyph glyph-name="period" unicode="." horiz-adv-x="135" 
d="M70 12q-9 0 -13 -11l-6 -21l-1 -2v-2q0 -15 14 -15q10 0 14 11l6 21q0 1 0.5 2t0.5 2q0 15 -14 15h-1z" />
    <glyph glyph-name="slash" unicode="/" horiz-adv-x="419" 
d="M355 580q-9 0 -13 -8q-58 -112 -124 -254q-132 -284 -167 -437q0 -1 -1 -3q0 -6 4.5 -10.5t10.5 -4.5q12 0 14 12q33 145 164 431q29 63 60 126.5t48 95.5l17 31q1 2 1 7q0 14 -14 14z" />
    <glyph glyph-name="zero" unicode="0" horiz-adv-x="365" 
d="M244 473h-4q-10 0 -36 -6q-1 0 -3 0.5t-2.5 0.5t-1.5 -0.5l-1 -0.5q-22 -4 -44 -20q-41 -21 -95 -61q-6 -4 -6 -12q0 -6 4 -10t10 -4t9 3q3 2 9.5 7.5t10.5 7.5l-15 -27q-49 -92 -69 -210q-10 -55 -10 -101q0 -55 14 -94q15 -43 44 -59q17 -10 40 -10q18 0 38 6
q34 8 70 49q28 32 61 96q61 123 75 245q3 28 3 53q0 32 -5 57q-12 54 -45 76q-22 14 -51 14zM244 444q21 0 35 -9q23 -15 33 -58q4 -22 4 -51q0 -23 -2 -49q-15 -124 -72 -237q-28 -55 -57 -89q-31 -35 -56 -40h-1q-18 -6 -31 -6q-15 0 -25 7q-21 13 -31 43q-12 33 -12 85
q0 45 9 96q19 113 66 202q29 56 66 85q26 12 37 15q19 6 34 6h3z" />
    <glyph glyph-name="one" unicode="1" horiz-adv-x="153" 
d="M119 487q-6 0 -10 -4q-15 -14 -35 -29q-38 -28 -62 -33q-12 -2 -12 -14q0 -6 4.5 -10.5t10.5 -4.5h2q31 6 74 39q1 1 4 3q-23 -93 -44 -198q-43 -215 -43 -320q0 -22 2 -40q1 -5 5.5 -9t9.5 -4q6 0 10 4.5t4 10.5v1q-2 15 -2 35q0 109 42 316l54 239v4q0 14 -14 14z" />
    <glyph glyph-name="two" unicode="2" horiz-adv-x="312" 
d="M210 487q-76 0 -135 -80q-13 -17 -24 -36.5t-15 -30.5l-4 -11q-1 -1 -1 -5q0 -6 4 -10t10 -4q10 0 14 9q13 36 39 71q50 68 112 68q25 0 32 -12q3 -6 3 -16.5t-3 -24.5q-14 -53 -78 -165q-10 -16 -28.5 -48t-30.5 -52t-27 -48t-26 -50q-52 -103 -52 -154q0 -6 1 -12
q0 -7 8 -11q6 -2 16 -5q17 -5 46 -8q23 -2 50 -2q70 0 160 14q12 2 12 14q0 6 -4 10t-10 4h-2q-88 -14 -155 -14q-27 0 -48.5 2t-40.5 7q-2 1 -3 1q0 47 48 141q11 21 111 197q65 115 80 172q5 20 5 33q0 16 -7 29q-15 27 -57 27z" />
    <glyph glyph-name="three" unicode="3" horiz-adv-x="378" 
d="M213 487q-77 0 -136 -80q-13 -17 -23.5 -36.5t-15.5 -30.5l-4 -11q-1 -1 -1 -5q0 -14 15 -14q9 0 13 9q13 36 39 71q51 68 113 68q60 0 92 -35q25 -27 25 -72q0 -7 -1 -14q-6 -56 -50.5 -112.5t-125.5 -93.5q-8 -3 -8 -13q0 -9 6 -12q91 -54 91 -113q0 -47 -50 -74
q-30 -16 -63 -16q-21 0 -39 7q-54 23 -61 103q-2 13 -14 13q-6 0 -10.5 -4.5t-4.5 -10.5v-1q4 -49 25 -80.5t54 -45.5q24 -10 51 -10q39 0 75 20q29 16 47.5 42.5t18.5 57.5q0 65 -83 122q77 40 120.5 99t49.5 119q1 8 1 16q0 55 -33 92q-40 45 -113 45z" />
    <glyph glyph-name="four" unicode="4" horiz-adv-x="341" 
d="M308 487h-1q-5 0 -9 -3.5t-5 -7.5q-27 -110 -53 -240q-2 -11 -10.5 -51.5t-11.5 -63.5q-26 -2 -57 -2q-23 0 -47 1q-52 4 -79 9l151 338q1 2 1 6q0 6 -4 10t-10 4q-10 0 -13 -8l-159 -355q-1 -2 -1 -6q0 -12 11 -14q46 -8 101 -12q40 -3 64 -3q21 0 38 2
q-17 -110 -17 -175q0 -22 2 -40q2 -13 14 -13q6 0 10 4.5t4 10.5v1q-1 14 -1 33q0 68 18 183q13 2 35 10q10 4 10 13q0 14 -15 14q-4 0 -5 -1q-9 -3 -21 -6q8 47 20 105l53 239v4q0 14 -13 14z" />
    <glyph glyph-name="five" unicode="5" horiz-adv-x="352" 
d="M96 487q-5 0 -9 -3.5t-5 -7.5l-61 -265l-0.5 -1t-0.5 -2q0 -6 4 -10.5t10 -4.5q1 0 3 0.5l2 0.5q72 26 127 26q64 0 100 -34q39 -36 39 -101q0 -25 -7 -51q-12 -43 -38 -76.5t-60 -43.5q-14 -4 -29 -4q-71 0 -145 96q-4 6 -11 6q-6 0 -10.5 -4.5t-4.5 -10.5t3 -9
q82 -106 168 -106q19 0 37 5q43 13 73.5 51.5t43.5 88.5q8 30 8 60q0 75 -47 119q-45 42 -121 42q-50 0 -111 -19l53 229h199h1q14 0 14 15q0 14 -14 14h-1h-210z" />
    <glyph glyph-name="six" unicode="6" horiz-adv-x="381" 
d="M338 487q-61 -1 -141 -91q-76 -86 -136 -208l-21 -48l-21 -9q-9 -4 -9 -13q0 -14 15 -14h1q-26 -75 -26 -127q0 -48 23 -75q24 -28 70 -28h4h7q64 0 139 68q75 69 98 141q7 21 7 39q0 16 -5 29q-12 31 -52 42q-17 4 -38 4q-66 0 -176 -42q1 3 5 10t5 11q56 116 131 201
q34 38 67 59.5t56 21.5h4h1q6 0 10.5 4.5t4.5 10.5q0 12 -13 14h-10zM258 169q16 0 26 -3q26 -7 32 -25q2 -7 2 -17q0 -14 -5 -32q-10 -31 -34 -66t-55 -63q-68 -61 -122 -61h-4h-1h-5q-32 0 -47 18q-16 19 -16 57q0 58 33 141q116 48 185 51h11z" />
    <glyph glyph-name="seven" unicode="7" horiz-adv-x="335" 
d="M99 490h-22q-45 0 -65 -3q-12 -2 -12 -14q0 -15 14 -15h1q1 1 2 1q16 2 60 2h96q19 0 43 -0.5t39 -1t24 -0.5q-52 -129 -89 -229q-100 -264 -112 -350v-2q0 -15 14 -15q12 0 14 13q10 81 110 344l98 247q1 1 1 6q0 14 -14 14q-62 2 -128 3h-74z" />
    <glyph glyph-name="eight" unicode="8" horiz-adv-x="428" 
d="M253 474q-65 0 -142 -50q-53 -35 -82 -77t-29 -80q0 -6 1 -12q6 -51 64 -85q32 -19 92 -33l-2 -2q-40 -37 -65.5 -88t-25.5 -104v-2q4 -38 39 -54q20 -9 45 -9q12 0 25 2q79 12 159 70q37 27 57 56t20 53q0 6 -1 11q-7 35 -46 54q-45 21 -117 27q-4 0 -12 2q4 2 12 4
q13 4 24 4q17 0 31 -9q3 -3 8 -3q6 0 10.5 4.5t4.5 10.5q0 8 -6 12q-20 14 -48 14q-16 0 -33 -5q-24 -7 -50 -25q-69 13 -106 35q-46 26 -51 63q-1 4 -1 9q0 30 25 64q30 42 73 69q68 44 130 44q25 0 43 -9q32 -16 39 -64q1 -11 1 -23q0 -54 -27 -134v-4q0 -6 4 -10.5
t10 -4.5q9 0 13 10q29 83 29 142q0 15 -2 28q-9 62 -54 86q-26 13 -59 13zM193 130q16 -3 50 -7q71 -6 106 -24q28 -15 31 -34v-5q0 -17 -14 -38q-15 -21 -51 -49q-33 -24 -73 -42t-73 -23q-13 -2 -23 -2q-19 0 -31 6q-20 10 -23 32q0 44 23.5 90.5t59.5 79.5q6 6 18 16z
" />
    <glyph glyph-name="nine" unicode="9" horiz-adv-x="423" 
d="M202 475q-18 0 -27 -2q-58 -13 -119 -78q-56 -56 -56 -134q0 -74 49 -105q24 -15 56 -15q41 0 88 26q78 44 172 162q-22 -104 -48 -172q-18 -47 -39.5 -88t-50 -78t-65.5 -63t-79 -36q-4 -1 -7.5 -5t-3.5 -9q0 -6 4 -10t10 -4h3q164 37 255 283q20 54 35 112.5t19 90.5
l5 32v2q0 6 -4 10t-10 4q-8 0 -12 -6q-106 -148 -198 -200q-41 -23 -74 -23q-22 0 -40 11q-37 23 -37 80q0 66 49 115q54 60 104 70q11 2 21 2q26 0 53 -15q19 -11 35.5 -28.5t24.5 -29.5l7 -12q4 -8 13 -8q6 0 10 4t4 10q0 3 -2 7q-3 6 -8.5 15.5t-25.5 31.5t-43 35
q-31 18 -68 18z" />
    <glyph glyph-name="colon" unicode=":" horiz-adv-x="135" 
d="M70 154q-9 0 -13 -11l-6 -21l-1 -2v-2q0 -15 14 -15q10 0 14 11l6 21q0 1 0.5 2t0.5 2q0 15 -14 15h-1zM70 12q-9 0 -13 -11l-6 -21l-1 -2v-2q0 -15 14 -15q10 0 14 11l6 21q0 1 0.5 2t0.5 2q0 15 -14 15h-1z" />
    <glyph glyph-name="semicolon" unicode=";" horiz-adv-x="183" 
d="M118 154q-9 0 -13 -11l-7 -21v-4q0 -15 14 -15q10 0 14 11l6 21q0 1 0.5 2t0.5 2q0 15 -14 15h-1zM114 12q-12 0 -14 -12q-7 -32 -24 -47l-16 -10q-10 -4 -10 -14q0 -14 15 -14q1 0 3 0.5l2 0.5q12 4 25 16q25 23 33 62v1q1 1 1 2q0 6 -4.5 10.5t-10.5 4.5z" />
    <glyph glyph-name="less" unicode="&#x3c;" horiz-adv-x="313" 
d="M240 295q-6 0 -9 -3q-13 -10 -39 -29.5l-42 -31.5t-41.5 -29.5t-51.5 -33.5q-7 -4 -7 -12q0 -12 11 -14l185 -38h3q14 0 14 14q0 12 -11 14l-150 31q32 21 147 106q5 3 5 12q0 14 -14 14z" />
    <glyph glyph-name="equal" unicode="=" horiz-adv-x="345" 
d="M64 224q-14 0 -14 -14q0 -15 14 -15h217q14 0 14 15q0 14 -14 14h-217zM64 132q-14 0 -14 -14t14 -14h217q14 0 14 14t-14 14h-217z" />
    <glyph glyph-name="greater" unicode="&#x3e;" horiz-adv-x="314" 
d="M73 295q-14 0 -14 -14q0 -8 6 -12q115 -85 147 -106l-150 -31q-12 -2 -12 -14q0 -14 15 -14h3l184 38q12 2 12 14q0 8 -7 12q-45 28 -175 124q-3 3 -9 3z" />
    <glyph glyph-name="question" unicode="?" horiz-adv-x="426" 
d="M299 580q-45 0 -92 -23t-85 -61q-72 -70 -72 -137q0 -14 4 -27q3 -11 14 -11q5 0 9.5 4.5t4.5 10.5v4q-3 8 -3 18q0 27 17 58.5t46 59.5q34 33 77 54t80 21q26 0 40 -10q10 -7 10 -25q0 -32 -43 -116q-11 -20 -53 -95.5t-67 -129t-36 -101.5l-0.5 -2l-0.5 -2q0 -6 4 -10
t10 -4q4 0 8.5 3.5t5.5 7.5q10 44 33.5 94.5t68 129.5t53.5 96q45 87 45 129q0 32 -19 47q-22 17 -59 17zM147 12q-5 0 -9.5 -3.5t-4.5 -8.5l-4 -26v-2q0 -6 4 -10.5t10 -4.5q12 0 14 12l5 26v2q0 6 -4.5 10.5t-9.5 4.5h-1z" />
    <glyph glyph-name="at" unicode="@" horiz-adv-x="588" 
d="M379 353q-32 0 -71 -6q-111 -21 -188 -129q-70 -98 -70 -199q0 -54 23.5 -94t70.5 -55q27 -9 59 -9q92 0 226 72q8 4 8 12q0 6 -4 10.5t-10 4.5q-3 0 -7 -2q-128 -68 -214 -68q-28 0 -49 7q-74 25 -74 119q0 95 65 185q68 97 169 117q40 6 71 6q34 0 57 -7q41 -12 57 -41
q11 -20 11 -49q0 -44 -23 -92q-18 -37 -41 -61t-38 -26q-5 -1 -10 2q-4 2 -8 14q-6 16 -6 47q0 21 3 48v1q0 6 -4.5 10.5t-10.5 4.5q-4 0 -8.5 -3.5t-5.5 -8.5q0 -2 -5 -10q-14 7 -34 8h-3q-41 0 -66 -35q-29 -38 -33 -65q-3 -15 4 -27q8 -12 25 -14q8 -1 20 5q3 1 19 13
q17 13 42 38q1 1 28 31q0 -31 8 -53q6 -18 19 -27t29 -7q28 4 56 34q26 28 46 69q26 56 26 104q0 35 -15 63q-23 40 -74 55q-29 8 -61 8h-9zM314 133h3q10 0 18 -4q-18 -22 -29 -33q-18 -19 -39 -35l-15 -10q-2 -1 -5 -2v0h-3q0 2 1 7q4 21 28 53q18 24 41 24zM244 49z" />
    <glyph glyph-name="A" unicode="A" horiz-adv-x="611" 
d="M480 569q-30 0 -68 -33q-34 -30 -73 -81q-75 -98 -154 -247q-41 -76 -77 -156q-52 -9 -98 -24q-10 -3 -10 -13q0 -6 4 -10.5t10 -4.5q1 0 3 0.5l2 0.5q48 14 74 19q-13 -29 -31 -76q-25 -65 -34 -102q-7 -31 -7 -48q0 -11 2 -20q3 -10 13 -10q6 0 10.5 4t4.5 10l-0.5 2
l-0.5 2q-1 3 -1 9q0 17 7 44q12 45 33 99q14 37 39 92q122 21 276 21q44 0 83 -2q-9 -63 -20.5 -127t-17.5 -96l-7 -33v-3q0 -6 4 -10.5t10 -4.5q5 0 9 3.5t5 8.5q24 118 45 261l8 -1h1q6 0 10.5 4t4.5 10q0 5 -4.5 10t-9.5 5h-6q2 15 6.5 47.5t6.5 49.5q15 133 15 222
q0 24 -1 45q-3 56 -16 91q-8 19 -19 30q-12 12 -31 12zM480 541q7 0 12 -5q6 -6 12 -19q11 -28 14 -83q1 -20 1 -43q0 -87 -15 -219q-8 -66 -13 -98h-10q-34 2 -62 2h-21q-134 0 -255 -18h-1q33 71 69 137q80 149 151 243q42 54 69 77q30 26 49 26z" />
    <glyph glyph-name="B" unicode="B" horiz-adv-x="771" 
d="M545 560q-118 0 -248 -37q-196 -56 -267 -148q-30 -40 -30 -80q0 -15 4 -29q17 -58 95 -110q4 -2 8 -2q6 0 10.5 4t4.5 10q0 8 -7 12q-70 46 -83 94q-3 11 -3 22q0 29 24 61q31 41 99 78t153 61q124 35 243 35q48 0 89 -6q73 -12 115 -44q44 -33 44 -90
q0 -51 -43.5 -105.5t-115.5 -97.5q-61 -36 -132.5 -58.5t-139.5 -24.5q2 10 18 80q11 44 23.5 88t19.5 67l7 22v4q0 6 -4 10.5t-10 4.5q-11 0 -14 -10q-26 -80 -50 -179q-13 -52 -20 -87q-19 0 -28 1h-2q-6 0 -10 -4t-4 -10q0 -12 13 -14q10 -1 26 -4q-15 -82 -15 -140
q0 -22 2 -40q2 -13 14 -13q6 0 10.5 4t4.5 10l-1 2q-2 15 -2 33q0 54 15 139q48 -10 79 -22q54 -20 80 -49q21 -23 21 -49q0 -11 -4 -24q-11 -38 -66 -74q-52 -34 -116 -50q-33 -9 -62 -9q-21 0 -34 5q-13 4 -18 14q-5 9 2 28q1 1 1 6q0 6 -4 10t-10 4q-10 0 -14 -10
q-6 -16 -6 -29q0 -11 5 -21q10 -21 35 -29q18 -6 42 -6q32 0 70 10q73 19 125 53q64 41 77 90q5 16 5 31q0 40 -28 70q-29 31 -91 55q-2 1 -10 4.5t-13 4.5q120 18 227 82q79 47 126.5 106.5t47.5 121.5q0 69 -55 112q-45 36 -129 49q-33 5 -80 7h-16z" />
    <glyph glyph-name="C" unicode="C" horiz-adv-x="735" 
d="M478 570q-64 0 -193 -102h-1q-194 -164 -259 -351q-25 -71 -25 -135q0 -86 44 -142q52 -67 152 -67q52 0 111 19q202 64 447 316q4 4 4 10t-4.5 10t-10.5 4t-10 -4q-241 -247 -434 -309q-56 -18 -103 -18q-85 0 -130 57q-37 46 -37 123q0 59 23 126q28 83 91 170.5
t159 168.5q122 96 176 96q20 0 28.5 -17t8.5 -50v-15v-1q0 -6 4 -10t10 -4q5 0 10 4t5 9v18q0 39 -12 62q-18 32 -54 32z" />
    <glyph glyph-name="D" unicode="D" horiz-adv-x="824" 
d="M544 560q-118 0 -248 -37q-195 -56 -266 -148q-30 -40 -30 -80q0 -15 4 -29q17 -58 95 -110q4 -2 8 -2q6 0 10 4t4 10q0 9 -6 12q-70 46 -83 94q-3 12 -3 23q0 29 23 60q31 41 99 78t153 61q124 35 243 35q48 0 89 -6q74 -12 116 -44q43 -33 44 -86q0 -69 -25 -139.5
t-69 -132t-96.5 -113.5t-113.5 -96q-72 31 -148 31q-1 11 -1 24q0 92 39 234q11 40 23.5 79.5t19.5 58.5l7 20q1 1 1 5q0 6 -4 10.5t-10 4.5q-10 0 -14 -10q-26 -71 -50 -161q-40 -147 -40 -241q0 -13 1 -25q-7 0 -17 -2q-60 -8 -95 -30q-42 -26 -52 -64q-4 -15 -4 -28
q0 -7 1 -13q3 -17 19 -30q18 -14 48 -14q12 0 27 2q98 14 231 102q4 3 11 7t10 7q24 -12 29 -15q4 -2 8 -2q6 0 10 4t4 10q0 10 -7 13l-18 9q61 46 113 99t96 116t69 135t25 145q-1 67 -55 109q-46 36 -128 49q-33 5 -81 7h-16zM344 -84q57 0 120 -22q-1 -1 -3 -2.5t-3 -1.5
q-125 -83 -219 -97q-11 -2 -20 -2q-24 0 -34 9q-7 5 -8 13q-2 10 3 28q7 26 39 46q34 21 83 27q16 2 26 2h16z" />
    <glyph glyph-name="E" unicode="E" horiz-adv-x="617" 
d="M536 560q-28 0 -70 -10q-73 -19 -125 -53q-63 -41 -77 -90q-5 -16 -5 -31q0 -39 28 -69q30 -33 91 -56q18 -7 23 -8q-120 -18 -227 -82q-78 -47 -126 -107t-48 -122q0 -77 74 -120q60 -35 153 -35h8q97 2 189 39.5t144 106.5q3 3 3 9t-4.5 10t-10.5 4q-7 0 -11 -6
q-47 -62 -134 -98t-176 -37h-7q-82 0 -139 32q-60 34 -60 96q0 51 43.5 105.5t115.5 97.5q65 39 141.5 61.5t148.5 22.5q20 0 40 -2h2q6 0 10 4t4 10q0 12 -13 14q-70 7 -133 31q-54 20 -80 49q-21 23 -21 49q0 11 4 24q11 38 66 74q53 34 115 50q33 9 63 9q21 0 34 -5
q13 -4 18 -14q5 -9 -2 -28l-0.5 -2t-0.5 -3q0 -6 4 -10.5t10 -4.5q10 0 14 10q6 16 6 29q0 11 -5 21q-10 21 -35 29q-16 6 -38 6h-4z" />
    <glyph glyph-name="F" unicode="F" horiz-adv-x="486" 
d="M464 586h-24q-32 0 -98 -2l-259 -7q-6 0 -10 -4t-4 -10t4 -10.5t10 -4.5h1q24 1 58 2q-31 -138 -64 -319q-3 -17 -9.5 -52t-9.5 -53q-35 -2 -50 -8q-9 -4 -9 -14q0 -6 4 -10t10 -4q5 0 6 1q3 1 34 5q-14 -88 -19 -128q-15 -108 -15 -159q0 -18 2 -32q1 -5 5.5 -9t9.5 -4
q6 0 10 4t4 10v2q-1 12 -1 29q0 58 13 155q15 106 20 134h9h33q29 0 88 -1l161 -7h1q14 0 14 14q0 15 -13 15q-78 5 -162 7q-21 1 -63 1h-59h-4l18 99q39 211 66 325q18 0 76.5 2t93.5 3q93 1 137 1h51q15 0 69 -3q27 -2 34 -5q1 -1 5 -1q14 0 14 15q0 9 -9 13q-14 6 -42 7
q-38 2 -71 2q-10 0 -32 0.5t-34 0.5z" />
    <glyph glyph-name="G" unicode="G" 
d="M460 562q-8 0 -13 -1q-61 -6 -145 -76q-118 -97 -194.5 -225.5t-99.5 -245.5q-8 -44 -8 -81q0 -62 23 -101q21 -35 56 -47q17 -5 36 -5q23 0 50 7q205 58 332 187q29 29 48 56l-46 -249v-3q0 -6 4 -10t10 -4q5 0 9 3.5t5 8.5q28 136 58 322v2q0 6 -4 10t-10 4
q-9 0 -13 -9q-20 -49 -81 -111q-123 -126 -320 -180q-21 -6 -38 -6q-16 0 -31 5q-25 8 -40 34q-19 33 -19 89q0 34 7 73q22 112 96.5 236.5t187.5 217.5q78 65 130 70q5 1 10 1q29 0 48 -24q12 -15 19 -38t8 -39l1 -16q0 -6 4 -10t10 -4t10.5 4t4.5 10v1q0 7 -0.5 19.5
t-9 41.5t-24.5 49q-27 34 -71 34z" />
    <glyph glyph-name="H" unicode="H" horiz-adv-x="605" 
d="M199 577q-5 0 -9 -3.5t-5 -7.5q-35 -158 -68 -335q-21 -117 -31 -183q-38 -7 -76 -20q-10 -3 -10 -13q0 -6 4 -10.5t10 -4.5l2 0.5t3 0.5q20 6 62 16q-1 -9 -3.5 -25.5t-3.5 -23.5q-14 -101 -14 -156q0 -20 2 -35q2 -13 14 -13q6 0 10 4t4 10v2q-1 12 -1 29q0 58 13 155
q3 19 9 59q126 24 289 24q40 0 77 -2l-11 -77q-14 -101 -14 -156q0 -20 2 -35q2 -13 14 -13q6 0 10 4t4 10v2q-1 12 -1 29q0 58 13 155q2 15 6.5 43t5.5 37l17 -1h1q6 0 10.5 4t4.5 10q0 5 -4.5 10t-9.5 5q-6 0 -15 1l27 153q15 79 32 162.5t26 127.5l10 44v3q0 6 -4 10
t-10 4q-5 0 -9 -3.5t-5 -7.5q-35 -158 -68 -335q-14 -74 -27 -157q-34 2 -63 2h-23q-155 0 -281 -23q17 105 30 173l68 334v3q0 14 -14 14z" />
    <glyph glyph-name="I" unicode="I" horiz-adv-x="245" 
d="M230 590q-20 0 -40 -3l-51 -11q-10 -3 -10 -14q0 -14 14 -14h4q21 6 47 10h1q1 1 2 1q-30 -134 -66 -328q-34 -188 -44 -263q-13 -97 -13 -156v-20q-20 -2 -29 -4l-38 -12q-7 -4 -7 -13q0 -14 14 -14q3 0 7 2q7 5 29 9t51 4q26 0 56 -3h2q14 0 14 14q0 13 -13 15
q-33 3 -57 3v18q0 56 13 153q14 105 43 262l67 334l1 1q31 0 47 -6q1 -1 5 -1q14 0 14 14q0 10 -9 14q-20 8 -47 8h-7z" />
    <glyph glyph-name="J" unicode="J" horiz-adv-x="631" 
d="M363 561h-8q-83 -1 -168 -27q-71 -21 -122 -55q-56 -37 -64 -75q-1 -5 -1 -11q0 -17 9 -32q12 -19 40 -35q58 -31 180 -47h2q6 0 10 4t4 10q0 12 -13 14q-113 13 -169 44q-22 12 -30 25q-7 11 -4 22q5 26 51 57q42 28 116 51q87 26 167 26q60 0 104 -16q58 -20 81 -67
q16 -31 16 -72q0 -30 -9 -64q-7 -30 -30 -105q-12 1 -24 1q-49 0 -103 -18q-102 -34 -188 -106q-90 -75 -116 -151q-8 -24 -8 -46q0 -16 4 -31q11 -40 50 -65q25 -17 60 -17q21 0 42 6q61 16 121 75q110 108 182 320q13 -3 23 -9q2 -1 7 -1q6 0 10 4t4 10q0 10 -8 13
q-9 4 -27 10q18 57 29 103q10 39 10 72q0 47 -19 84q-28 56 -97 81q-51 18 -114 18zM501 181q3 0 8 -0.5t7 -0.5q-69 -202 -173 -304q-54 -53 -109 -68q-17 -5 -33 -5q-25 0 -45 13q-31 20 -39 48q-3 11 -3 23q0 18 7 37q23 67 108 139q83 70 178 101q48 16 88 17h6z" />
    <glyph glyph-name="K" unicode="K" horiz-adv-x="300" 
d="M139 577q-5 0 -9 -3.5t-5 -7.5q-35 -158 -68 -335q-30 -166 -43 -263q-14 -101 -14 -156q0 -20 2 -35q2 -13 14 -13q6 0 10.5 4t4.5 10v2q-2 12 -2 29q0 58 14 155q84 -51 166 -97q90 -50 132 -70q18 -9 53 -23q25 -10 38 -10q6 0 10 4t4 10t-4 10.5t-10 4.5q-9 0 -28 7
q-6 2 -50 23q-55 27 -131 69q-36 20 -160 93q18 29 55.5 84t105 148t147.5 186t147 149q5 3 5 11q0 6 -4 10t-10 4h-1q-6 0 -9 -3q-61 -52 -133 -132.5t-136 -166.5t-105.5 -145.5t-74.5 -110.5q12 81 36 207q14 79 31 162.5t26 127.5l10 44l0.5 1t0.5 2q0 6 -4.5 10
t-10.5 4z" />
    <glyph glyph-name="L" unicode="L" horiz-adv-x="219" 
d="M168 577q-5 0 -9 -3.5t-5 -7.5q-35 -158 -68 -335q-30 -166 -43 -263q-14 -103 -14 -158q0 -13 1 -24l-19 -3q-4 -1 -7.5 -5t-3.5 -9q0 -6 4 -10.5t10 -4.5q1 0 2 0.5l1 0.5q50 10 116 17q49 5 94 5q67 0 113 -12q1 0 2.5 -0.5l1.5 -0.5q6 0 10.5 4t4.5 10q0 10 -11 14
q-47 12 -109 14h-15q-35 0 -94 -5q-17 -2 -71 -10v18q0 57 13 155q14 105 43 262l67 334v1q1 1 1 2q0 14 -15 14z" />
    <glyph glyph-name="M" unicode="M" horiz-adv-x="891" 
d="M291 569h-5q-14 -2 -29 -19q-12 -14 -24 -36q-43 -77 -103 -267q-31 -96 -63.5 -212.5t-49.5 -184.5l-17 -68v-4q0 -6 4 -10t10 -4q5 0 9 3.5t5 7.5q61 248 129 463q58 185 101 262q11 20 21 31q8 9 12 9q2 0 4 -3q5 -6 11 -30q8 -31 8 -91q0 -43 -16 -269
q-7 -98 -7 -151q0 -22 1 -41q5 -93 39 -120q9 -7 18 -6q8 1 16 6q11 7 29 28q24 28 67 103q39 67 164 308q99 191 141 244q11 14 19 20q3 -9 3 -14v-11q0 -13 -2 -42q-17 -171 -39.5 -343.5t-36.5 -259.5l-14 -87v-3q0 -6 4 -10t10 -4q13 0 15 12q52 307 90 692q2 21 2 38
q0 11 -1 21q-2 24 -12 34q-9 7 -18 7q-5 0 -15 -6q-13 -9 -27 -27q-45 -57 -144 -248q-117 -225 -164 -307q-39 -68 -65 -99q-13 -17 -21 -21l-1.5 -1.5t-1.5 -0.5q-21 18 -26 99q-1 18 -1 39q0 51 7 149q1 21 6.5 85.5t8 105t2.5 76.5q0 64 -10 102q-6 24 -17 40
q-10 15 -26 15z" />
    <glyph glyph-name="N" unicode="N" horiz-adv-x="624" 
d="M609 577q-10 0 -13 -10q-46 -144 -76 -263t-61 -270.5t-40 -190.5q-10 -42 -19 -49q-3 1 -6 4q-24 26 -53 134q-26 97 -48 226.5t-29 223.5v1q-9 87 -24 127q-8 20 -21 28q-7 4 -16 4t-16 -4q-20 -12 -42 -64q-17 -40 -39 -117q-37 -133 -68.5 -307t-36.5 -271l-1 -1
q0 -14 15 -14q14 0 14 13q6 96 36.5 270t67.5 303q19 67 38 112q18 44 31 52l1 1l1 -1q5 -5 9 -15q13 -34 22 -119q7 -95 29.5 -225t49.5 -231q32 -114 59 -145q12 -12 22 -14q14 -3 25 8q16 15 27 63q9 38 40.5 191t61 270.5t74.5 260.5l1 2v3q0 14 -15 14z" />
    <glyph glyph-name="O" unicode="O" 
d="M421 561q-29 0 -54 -10q-60 -23 -111 -84q-65 -19 -117 -73q-52 -53 -86 -127.5t-46 -155.5q-7 -43 -7 -84q0 -121 56 -188q42 -52 110 -59q10 -1 21 -1q64 0 143 38l2 1q76 49 132.5 108t90 119.5t49.5 119.5t16 117q0 104 -46 181q-37 61 -89 84q-26 11 -57 13
q-1 0 -3.5 0.5t-3.5 0.5zM421 532h6q25 -2 46 -11q46 -21 77 -73q42 -70 42 -166q0 -54 -15 -109.5t-46.5 -113t-86 -114t-127.5 -103.5q-71 -34 -129 -34q-10 0 -19 1q-57 6 -91 48q-49 60 -49 175q0 37 6 75q11 76 43.5 147t80.5 120q30 31 65 50q-51 -76 -91 -188
l-0.5 -2t-0.5 -3q0 -6 4 -10t11 -4q9 0 13 9q49 138 114 217q23 6 48 6q42 0 86 -17q1 -1 5 -1q6 0 10 4t4 10q0 9 -9 13q-50 19 -96 19q-9 0 -18 -1q37 35 73 48q20 8 44 8z" />
    <glyph glyph-name="P" unicode="P" horiz-adv-x="762" 
d="M544 560q-117 0 -248 -37q-196 -56 -267 -148q-29 -39 -29 -79q0 -15 4 -30q17 -58 95 -110q4 -2 8 -2q6 0 10 4t4 10q0 8 -7 12q-70 46 -83 94q-3 11 -3 22q0 29 24 61q31 41 99 78t153 61q124 35 243 35q48 0 89 -6q74 -12 116 -44q44 -33 44 -90q0 -52 -44.5 -116
t-116.5 -118q-61 -46 -131.5 -75.5t-137.5 -35.5l15 81q11 56 24 115t20 90l7 31l0.5 1t0.5 2q0 6 -4 10.5t-10 4.5h-1q-11 0 -13 -11q-27 -109 -52 -237q-7 -33 -16 -88q-11 0 -31 2h-2q-6 0 -10 -4.5t-4 -10.5q0 -12 13 -14q20 -2 29 -2q-20 -123 -20 -198q0 -23 2 -41
q2 -13 14 -13q6 0 10 4t4 10v2q-1 14 -1 34q0 67 21 203q74 5 149.5 36.5t140.5 80.5q78 59 125 127t47 131q0 69 -55 112q-46 36 -128 49q-33 5 -81 7h-16z" />
    <glyph glyph-name="Q" unicode="Q" horiz-adv-x="663" 
d="M434 561q-25 0 -55 -11q-88 -36 -161 -167q-12 -4 -16 -6q-47 -22 -88 -74q-38 -48 -66 -113.5t-40 -134.5q-8 -45 -8 -84q0 -95 46 -145q37 -41 103 -42h4q64 0 156 43h1q33 22 81 60q96 -86 172 -122q2 -1 7 -1q6 0 10 4t4 10q0 10 -8 13q-66 31 -163 115
q100 90 148.5 195t48.5 206q0 91 -37 159q-30 58 -82 82q-28 13 -53 13h-4zM434 532h3q20 0 42 -10q42 -20 69 -70q33 -62 33 -146q0 -94 -46 -194t-143 -187q-3 3 -9.5 8.5t-11.5 10t-9 8.5q-28 26 -54 53.5t-39 41.5l-12 14q-4 6 -11 6q-6 0 -10 -4.5t-4 -10.5t3 -9
q45 -52 108 -112q18 -16 27 -25q-38 -31 -74 -54q-84 -40 -143 -40h-4q-51 1 -82 34q-38 41 -38 128q0 36 7 76q11 64 38 127.5t63 108.5q28 36 61 56q-23 -46 -46 -109q0 -1 -0.5 -3l-0.5 -2q0 -6 4.5 -10t10.5 -4q9 0 13 9q27 75 59 136q8 1 16 1l38 -8q2 -1 6 -1
q6 0 10 4t4 10q0 10 -9 14q-21 9 -48 9q64 106 135 135q22 9 44 9z" />
    <glyph glyph-name="R" unicode="R" horiz-adv-x="791" 
d="M544 560q-118 0 -248 -37q-195 -56 -266 -148q-30 -40 -30 -80q0 -15 4 -29q17 -58 95 -110q4 -2 8 -2q6 0 10 4t4 10q0 9 -6 12q-70 46 -83 94q-3 12 -3 23q0 29 23 60q31 41 99 78t153 61q124 35 243 35q48 0 89 -6q74 -12 116 -44q44 -33 44 -90q0 -52 -44.5 -116
t-116.5 -118q-133 -99 -268 -111q2 12 6.5 39.5t7.5 41.5q11 56 24 115t21 90l7 31v3q0 6 -4 10.5t-10 4.5q-5 0 -9 -3.5t-5 -7.5q-27 -109 -52 -237q-7 -33 -16 -88q-11 0 -31 2h-1q-6 0 -10 -4.5t-4 -10.5q0 -5 3 -8q12 -15 34 -39q-16 -108 -16 -168q0 -23 2 -40
q1 -5 5.5 -9t9.5 -4q6 0 10 4t4 10v2q-1 16 -1 36q0 60 11 143q161 -156 348 -195h3q6 0 10 4t4 10q0 12 -11 14q-76 16 -150 55t-118 74t-81 73q1 4 2.5 11.5t1.5 11.5q73 5 149 36.5t141 80.5q78 59 125 127t47 131q0 69 -55 112q-46 36 -128 49q-33 5 -81 7h-16z" />
    <glyph glyph-name="S" unicode="S" horiz-adv-x="613" 
d="M428 564q-55 -1 -122 -27t-130 -69q-78 -54 -127 -116t-49 -121q0 -71 72 -115q74 -45 230 -60q97 -7 143 -28q40 -18 43 -39v-5q0 -20 -19 -45q-22 -28 -69 -57q-96 -61 -195 -74q-16 -2 -30 -2q-28 0 -46 7q-28 11 -32 39q-2 12 -14 12q-6 0 -10.5 -4t-4.5 -10l0.5 -1
t0.5 -2q7 -44 49 -61q23 -9 55 -9q16 0 35 2q50 7 106 28t102 51q49 30 75 63t26 61q0 6 -1 12q-8 38 -60 61q-51 23 -152 30q-145 13 -217 56q-59 36 -59 88q0 48 46.5 107t117.5 108q60 41 126 66t116 25q15 0 27 -2q51 -11 62 -59q3 -14 3 -31q0 -57 -33 -140
q-1 -1 -1 -6q0 -6 4.5 -10t10.5 -4q9 0 13 9q35 89 35 149q0 22 -4 40q-8 33 -30 53.5t-54 26.5q-15 3 -32 3h-7z" />
    <glyph glyph-name="T" unicode="T" horiz-adv-x="319" 
d="M405 586h-24q-33 0 -101 -2l-266 -7q-6 0 -10 -4t-4 -10t4 -10.5t10 -4.5h1q117 4 246 7q-23 -98 -65 -324q-30 -166 -43 -263q-14 -101 -14 -156q0 -20 2 -35q2 -13 14 -13q6 0 10 4t4 10v2q-1 12 -1 29q0 58 13 155q14 105 43 262q9 48 19 98.5t18 89.5t14.5 70t11 51
t4.5 21q91 1 133 1h49q13 0 70 -3q28 -1 35 -5q1 -1 5 -1q14 0 14 15q0 9 -9 13q-15 6 -43 7q-38 2 -72 2q-10 0 -33 0.5t-35 0.5z" />
    <glyph glyph-name="U" unicode="U" horiz-adv-x="642" 
d="M585 577h-1q-12 0 -14 -13q-1 -10 -4 -27.5t-15.5 -71t-29.5 -106.5t-49 -126.5t-71 -138t-98.5 -133t-128.5 -120.5q-55 -40 -88 -40h-4q-27 3 -40 39q-13 34 -13 98q0 66 14 157q14 95 40.5 210t45.5 182l20 68q0 1 0.5 2t0.5 2q0 6 -4 10t-10 4q-11 0 -14 -10
q-9 -28 -22 -75t-42 -169.5t-43 -218.5q-15 -100 -15 -164q0 -66 15 -106q8 -24 25 -40t40 -18h7q41 0 104 46q219 163 335 468q-21 -109 -39 -187q-17 -76 -36 -155.5t-29 -120.5l-10 -41l-0.5 -2l-0.5 -2q0 -6 4 -10t10 -4q4 0 8.5 3.5t5.5 7.5q37 146 75 317
q78 352 85 469v1v1q0 6 -4 10t-10 4z" />
    <glyph glyph-name="V" unicode="V" horiz-adv-x="558" 
d="M579 577q-10 0 -13 -10q-63 -195 -137 -391q-65 -173 -114 -269q-27 -54 -51 -86q-15 -19 -20 -23q-6 -5 -11 -5q-14 0 -31 24q-16 22 -38 78q-37 98 -70 244q-18 79 -34.5 168t-23.5 139l-8 49q-2 12 -14 12q-14 0 -14 -14v-3q26 -179 67 -358q34 -153 70 -247
q21 -54 42 -84q26 -37 54 -37q13 0 28 12q11 8 26 27q24 32 54 91q48 93 115 271q33 88 67.5 186t52.5 153l17 54l1 2v3q0 14 -15 14z" />
    <glyph glyph-name="W" unicode="W" horiz-adv-x="736" 
d="M690 577q-13 0 -15 -12q-27 -196 -65 -392q-34 -177 -63 -268q-17 -54 -34 -86q-7 -14 -15 -22l-7 -4q-10 0 -22 17q-12 18 -24 61q-17 60 -36 193q-22 158 -30 196q-10 46 -20 67q-6 14 -15 23q-10 10 -23 10q-11 0 -24 -15q-12 -14 -19 -28q-15 -28 -43 -94
q-16 -39 -51.5 -126.5t-52.5 -127.5q-24 -60 -49 -111q-23 -47 -40 -66l-5 -5q-8 16 -8 84q1 169 8.5 342t14.5 261l6 88v1q0 14 -14 14q-13 0 -15 -13q-26 -312 -29 -693q0 -74 11 -97q3 -8 10 -12q10 -6 17 -5q13 1 25 15q18 20 44 73q28 55 51 113q15 36 50.5 125
t52.5 129q29 68 42 91q7 13 16 24l4 4l1 -1q5 -5 9 -14q8 -19 18 -62q8 -38 30 -194q19 -134 36 -197q13 -43 28 -68q19 -31 46 -31q14 0 27 13q10 10 20 28q16 31 36 92q30 98 64 271q17 88 33.5 186t24.5 152l8 55v2q0 14 -14 14z" />
    <glyph glyph-name="X" unicode="X" horiz-adv-x="697" 
d="M113 580q-15 0 -15 -14q0 -6 3 -9q139 -175 292 -368q-280 -271 -390 -409q-3 -3 -3 -9q0 -14 14 -14q7 0 11 6q103 130 386 404q156 -197 318 -404q4 -6 12 -6q14 0 14 14q0 6 -3 9q-39 50 -320 407q11 10 31.5 30t30.5 30q78 75 160 151t125 115l43 39q5 3 5 11
q0 14 -14 14h-1q-5 0 -9 -4q-153 -138 -329 -306q-40 -38 -60 -58l-290 365q-4 6 -11 6z" />
    <glyph glyph-name="Y" unicode="Y" horiz-adv-x="538" 
d="M553 577h-1q-4 0 -8.5 -3.5t-5.5 -7.5t-25 -103q-12 -34 -28 -65q-97 -194 -309 -317q-59 -34 -95 -34q-28 0 -40 21q-11 20 -11 62q0 45 12 106q14 64 39.5 143.5t44.5 127.5l19 47q2 4 2 6q0 6 -4 10t-11 4q-9 0 -13 -9q-8 -19 -21 -52t-41.5 -118.5t-42.5 -152.5
q-14 -68 -14 -111q0 -48 16 -77q22 -36 65 -36t109 39q185 107 285 266q-34 -124 -76 -236h-3q-67 0 -116 -29t-79 -76q-30 -49 -35 -103q-1 -12 -1 -22q0 -40 15 -63q12 -18 29 -22q6 -1 12 -1q15 0 28 7q41 21 87 101q45 76 83 179q4 0 11.5 -1t11.5 -2h3q6 0 10 4t4 10
q0 12 -12 14q-3 1 -9 1t-9 1q53 144 111 370q11 28 17.5 55t7.5 39l1 13l1 1q0 6 -4 10t-10 4zM388 59q-42 -108 -76 -166q-43 -73 -76 -90q-11 -6 -20 -4q-5 1 -12 11q-10 16 -10 49v17q5 48 31 91q55 89 163 92z" />
    <glyph glyph-name="Z" unicode="Z" horiz-adv-x="411" 
d="M394 583q-39 0 -90 -8q-48 -8 -104 -21t-89 -23l-32 -9q-10 -3 -10 -14q0 -6 4 -10t10 -4h5q116 37 221 53q46 7 82 7q30 0 47 -5q19 -5 22 -15q1 -3 1 -7q0 -11 -8 -27q-43 -58 -104 -144t-116.5 -167t-105 -153.5t-79.5 -117.5l-30 -45q-18 -21 -18 -40q0 -7 2 -13
q8 -22 41 -36q49 -20 165 -27q47 -2 103 -2q99 0 266 9q6 0 10 4t4 10t-4 10.5t-10 4.5h-1q-167 -9 -265 -9q-57 0 -102 2q-110 5 -155 24q-21 9 -25 19q-3 9 12 27l1 1q281 421 435 627q1 1 1 2q13 23 13 41q0 10 -4 18q-9 23 -41 32q-21 6 -47 6h-5z" />
    <glyph glyph-name="bracketleft" unicode="[" horiz-adv-x="331" 
d="M141 580q-12 0 -14 -13q-65 -627 -77 -788v-1q0 -5 4 -9.5t9 -4.5l128 -7h1q14 0 14 14q0 15 -14 15l-112 6q6 76 24 259.5t34 339.5t16 160h113q14 0 14 15q0 14 -14 14h-126z" />
    <glyph glyph-name="backslash" unicode="\" horiz-adv-x="419" 
d="M65 580q-15 0 -15 -14q0 -3 2 -7q59 -111 124 -253q133 -290 165 -431q2 -12 14 -12q14 0 14 15v3q-35 153 -167 437q-29 63 -60.5 126.5t-47.5 95.5l-17 32q-4 8 -12 8z" />
    <glyph glyph-name="bracketright" unicode="]" horiz-adv-x="326" 
d="M121 580q-14 0 -14 -14q0 -15 14 -15h125q-50 -469 -74 -759l-108 -6q-14 0 -14 -15q0 -14 15 -14h1l120 7q11 0 13 13q5 71 24.5 267.5t36.5 357.5l16 162v2q0 14 -14 14h-141z" />
    <glyph glyph-name="asciicircum" unicode="^" horiz-adv-x="258" 
d="M133 487q-8 0 -11 -5l-68 -75q-4 -4 -4 -10q0 -14 14 -14q8 0 11 5q34 37 56 62q14 -18 27 -32l25 -29q3 -5 11 -5q14 0 14 14q0 6 -4 10q-12 12 -25 28q-26 32 -34 44q-3 7 -12 7z" />
    <glyph glyph-name="underscore" unicode="_" horiz-adv-x="445" 
d="M65 0q-15 0 -15 -14q0 -6 4.5 -10.5t10.5 -4.5h315q6 0 10.5 4.5t4.5 10.5q0 14 -15 14h-315z" />
    <glyph glyph-name="grave" unicode="`" horiz-adv-x="169" 
d="M65 487h-1q-14 0 -14 -14q0 -6 4 -10l41 -44q4 -4 10 -4q14 0 14 14q0 7 -3 10l-41 43q-5 5 -10 5z" />
    <glyph glyph-name="a" unicode="a" horiz-adv-x="267" 
d="M111 175q-9 0 -13 -10q0 -1 -0.5 -1.5l-0.5 -0.5l-0.5 -1.5t-2 -4t-1.5 -4.5q-12 10 -26 12q-5 1 -11 1q-30 0 -52 -31q-29 -39 -40 -80q-5 -19 -5 -27q0 -3 1 -7q1 -8 7.5 -16t17.5 -8q9 -1 21 7q1 1 19 16q17 16 42 46q1 2 3.5 5t4.5 5q-1 -9 -1 -17q0 -14 3 -26
q4 -21 23 -31q10 -6 22 -6q7 0 14 2q30 6 79 42q42 31 72 69q4 4 4 9q0 6 -4.5 10t-10.5 4q-8 0 -11 -5q-31 -37 -67 -65q-39 -29 -67 -36q-13 -3 -18 1q-8 5 -9 13q-2 6 -2 14q0 34 20 93q0 1 0.5 3t1.5 3q0 1 0.5 2l0.5 1v1q0 1 0.5 2l0.5 1q0 6 -4.5 10.5t-10.5 4.5z
M55 138q1 0 3.5 -0.5t3.5 -0.5l15 -7l1 -1q-13 -19 -33 -45q-19 -25 -40 -44q-14 -11 -15 -12l-1 -1q0 12 2 21q10 36 36 70q15 20 28 20z" />
    <glyph glyph-name="b" unicode="b" horiz-adv-x="278" 
d="M119 487q-10 0 -13 -8q-33 -71 -63 -164q-49 -152 -49 -261q0 -23 2 -43v-1v-1v-1v-1h1v-1v-1l1 -1v-1l1 -1l1 -1l1 -1l1 -1h1h1l1 -1h1h1l1 -1h1h12q44 0 77 18t50 46q9 14 11 25q64 18 119 18q6 0 10.5 4t4.5 10t-4.5 10t-10.5 4q-55 0 -116 -16v2q-5 31 -35 42
q-12 5 -25 5q-23 0 -41 -15q-19 -14 -36 -48q10 94 45 205q13 40 28.5 80t24.5 60l9 20q1 2 1 6q0 6 -4 10t-10 4zM103 136q7 0 14 -3q14 -6 17 -20v-5q-9 -3 -25 -9q-41 -16 -69 -35q2 4 4.5 10.5t3.5 9.5q13 30 31 43q11 9 22 9h2zM123 74q-25 -40 -83 -47q30 27 79 46
q1 0 2.5 0.5z" />
    <glyph glyph-name="c" unicode="c" horiz-adv-x="232" 
d="M80 182h-4q-18 -1 -42 -19t-43 -43.5t-25 -51.5q-1 -7 -1 -13q0 -23 15 -38q20 -20 68 -20q61 0 139 56q17 12 33 25.5t23 21.5l7 8q4 4 4 10t-4 10t-10 4q-7 0 -10 -4q-25 -26 -60 -52q-67 -50 -122 -50q-37 0 -48 11q-8 9 -6 26q4 18 21 40.5t36 36.5q19 13 27 13
q7 0 10 -3q3 -2 4.5 -5t2.5 -6v-2q1 -5 5.5 -8.5t9.5 -3.5q6 0 10 4t4 10v3q-3 18 -18 30q-12 10 -26 10z" />
    <glyph glyph-name="d" unicode="d" horiz-adv-x="346" 
d="M220 487h-1q-11 0 -14 -10v-1q-27 -97 -61 -200q-25 -75 -46 -131q-9 11 -19 17t-22 6t-22 -5q-24 -12 -45 -49l-1 -1q-17 -38 -17 -67q0 -28 19 -41q12 -8 27 -8q6 0 12 1q21 5 37 21q19 21 50 97q18 46 28 76q-3 -32 -3 -62v-19q2 -39 11 -63q12 -32 32 -43
q12 -7 26 -7q17 0 36 9q23 10 56 38q16 13 31.5 29t23.5 26l8 9q3 3 3 9t-4 10t-10 4q-8 0 -11 -5q-26 -32 -59 -60q-28 -24 -50 -34q-15 -7 -25 -7q-6 0 -10 3q-13 8 -20 28q-7 21 -9 55v17q0 55 13 134q8 47 20 98.5t20 78.5l9 28v1v4q0 14 -13 14zM56 140h1q3 0 7 -3
q4 -2 8 -6t6.5 -7.5t4.5 -7.5l2 -3q-24 -59 -39 -74q-9 -9 -22 -13q-9 -3 -16 2t-7 19q0 23 14 54q16 28 32 36q5 3 9 3z" />
    <glyph glyph-name="e" unicode="e" horiz-adv-x="230" 
d="M67 168q-20 0 -39 -13q-25 -17 -44 -41t-23 -49q-1 -5 -1 -11q0 -24 17 -38q22 -18 69 -18q64 0 141 56q16 12 31.5 25.5t23.5 20.5l7 8q4 4 4 10t-4 10t-10 4q-8 0 -11 -4q-22 -26 -57 -51q-70 -50 -125 -50q-37 0 -50 11q-10 8 -7 22q3 16 24 43q31 -6 51 -6q14 0 25 3
q16 5 22 14q8 11 5 24q-6 21 -34 28q-8 2 -12 2h-3zM69 139q1 0 3 -0.5t3 -0.5q8 -2 13 -7q-2 -2 -6 -3q-9 -3 -22 -3q-10 0 -21 2q1 1 2.5 2t2.5 2q12 8 25 8z" />
    <glyph glyph-name="f" unicode="f" horiz-adv-x="216" 
d="M121 487q-9 0 -13 -9q-30 -71 -60 -166q-53 -166 -62 -268l-20 -8q-9 -4 -9 -13q0 -8 6 -12q10 -7 21 -21q-1 -44 -1 -79q0 -67 4 -100q3 -24 9 -38q3 -9 9 -12q8 -5 17 -3q2 0 5 3q40 31 45 79q1 7 1 14q0 34 -16 71q-15 35 -40 69q0 1 -1.5 3t-2.5 3v4q0 4 0.5 11
t0.5 10q17 7 68 27q110 43 142 52q11 4 11 14q0 14 -15 14h-4q-27 -7 -144 -53q-13 -5 -28.5 -12t-26.5 -11q11 100 58 248q13 41 28 82t23 61l8 20q1 2 1 6q0 14 -14 14zM12 -49q14 -24 19 -37q13 -32 13 -61v-10q-3 -27 -25 -51q-2 8 -3 22q-4 37 -4 104v33z" />
    <glyph glyph-name="g" unicode="g" horiz-adv-x="313" 
d="M138 179q-5 0 -9.5 -3.5t-4.5 -7.5l-5 -10q-13 8 -37 12q-7 1 -13 1q-39 0 -61 -31q-28 -38 -40 -83q-5 -20 -5 -28q0 -3 1 -7q1 -10 7 -16q7 -9 18 -9q7 -1 21 7q2 2 22 16q25 22 49 47q28 31 41 46q-1 -6 -5 -62q-52 -38 -95 -85q-61 -65 -81 -123q-7 -21 -7 -35
q0 -9 3 -17q7 -25 39 -33q11 -3 23 -3q20 0 39 10q26 15 45 44q31 50 49 142q7 40 12 84q100 69 169 69q6 0 10.5 4t4.5 10t-4.5 10t-10.5 4q-74 0 -165 -59l4 92q0 6 -4 10t-10 4zM69 143q1 0 4 -0.5t5 -0.5q12 -2 24 -8q-11 -15 -41 -47q-23 -24 -47 -45q-9 -7 -18 -13
q-2 -2 -3 -2q0 16 2 23q11 40 36 73q14 20 35 20h3zM112 11q-5 -38 -8 -55q-17 -85 -46 -132q-15 -23 -33 -34q-13 -7 -26 -7q-8 0 -16 2q-16 4 -19 15q-1 3 -1 8q0 11 5 26q16 48 75 112q39 41 69 65z" />
    <glyph glyph-name="h" unicode="h" horiz-adv-x="370" 
d="M120 487h-1q-9 0 -13 -8q-33 -71 -63 -164q-49 -154 -49 -263q0 -22 2 -42q1 -5 5 -9t9 -4q9 0 12 7q19 33 45 66q27 32 41 45q21 18 37 18l5 -1q0 -1 1 -4q1 -2 1 -7t-2 -26q-1 -15 -1 -24q0 -13 2 -24q6 -29 30 -43q12 -7 27 -7q17 0 38 9q30 12 66 38q19 13 38 29
t29 26l9 9q4 4 4 10t-4 10t-10 4t-10 -4q-33 -33 -73 -61q-34 -24 -60 -34q-16 -6 -28 -6q-7 0 -12 2q-13 8 -16 24q-1 6 -1 15q0 8 1 24q1 2 2 12.5t1 16.5q0 7 -2 13q-1 11 -10.5 19t-24.5 8q-25 0 -55 -24q-17 -14 -46 -49q-1 -2 -9.5 -13t-12.5 -17q2 102 49 249
q14 40 29 80t24 60l8 20q1 2 1 6q0 14 -13 14z" />
    <glyph glyph-name="i" unicode="i" horiz-adv-x="239" 
d="M25 225q-11 0 -14 -10l-8 -24q0 -1 -0.5 -3l-0.5 -2q0 -6 4.5 -10t10.5 -4q10 0 13 10l8 24l0.5 2t0.5 3q0 6 -4 10t-10 4zM11 132q-15 0 -15 -13q0 -3 -2 -20.5t-2 -28.5v-7q2 -42 31 -58q15 -9 35 -9q18 0 39 7q27 9 74 38q21 14 42.5 30.5t32.5 25.5l11 10q4 3 4 11
q0 6 -4 10t-10 4t-10 -4q-36 -34 -81 -63q-35 -24 -68 -35q-14 -5 -27.5 -5t-22.5 5q-15 8 -17 34v5q0 9 2 25.5t2 22.5v1q0 6 -4 10t-10 4z" />
    <glyph glyph-name="j" unicode="j" horiz-adv-x="188" 
d="M21 225q-10 0 -14 -10l-8 -24v-5q0 -6 4 -10t10 -4q11 0 14 10l7 24l0.5 2t0.5 3q0 6 -4 10t-10 4zM11 132h-1q-6 0 -10 -4t-4 -10v-1q1 -11 1 -28q0 -47 -4 -91l-35 -35q-63 -66 -96 -121q-16 -30 -18 -48q-1 -12 4 -22q7 -11 19 -14q15 -4 28 -4q17 0 32 7q25 11 43 39
q30 45 43 126q3 20 7 58q51 47 83 71q66 49 92 49q6 0 10.5 4t4.5 10t-4.5 10t-10.5 4q-35 0 -109 -54q-32 -24 -63 -52q2 29 2 59l-1 34q0 5 -3.5 9t-9.5 4zM-12 -48l-3 -21q-14 -79 -38 -115q-13 -21 -31 -29q-10 -5 -23 -5q-9 0 -19 3l-2 1v5q2 14 15 37q26 45 92 115z
" />
    <glyph glyph-name="k" unicode="k" horiz-adv-x="298" 
d="M118 487q-10 0 -13 -8q-33 -71 -62 -164q-49 -150 -49 -259q0 -24 3 -46q1 -13 14 -13q8 0 12 7q7 10 10 15q23 -22 64 -22q57 0 145 56q18 12 36.5 25.5t27.5 21.5l10 7q5 3 5 11q0 6 -4.5 10t-10.5 4t-9 -3q-31 -26 -70 -52q-79 -51 -130 -51q-31 0 -48 17v1l1 2t2 2
q43 16 89 46q33 22 50 41q8 10 13 22q5 16 -1 27q-13 19 -31 19q-16 0 -34 -12q-27 -18 -63 -63q-24 -30 -41 -56q-4 -1 -10 -3q4 105 46 238q12 40 27.5 80t24.5 60l9 20q1 2 1 6q0 6 -4 10t-10 4zM172 175q3 0 6 -5l-1 -3q-3 -7 -8 -13q-14 -16 -43 -36q-8 -5 -39 -22
q0 1 4 6.5t7 7.5q36 43 56 57q12 8 18 8z" />
    <glyph glyph-name="l" unicode="l" horiz-adv-x="238" 
d="M121 487q-8 0 -12 -8q-31 -60 -60 -140q-51 -141 -51 -239q0 -14 1 -27q5 -57 42 -73q12 -5 26 -5q21 0 51 12q37 15 75.5 44t63.5 57q3 3 3 10q0 6 -4 10t-10 4q-8 0 -11 -5q-22 -25 -59 -52.5t-69 -40.5q-22 -10 -40 -10q-9 0 -15 3q-20 8 -24 48q-1 11 -1 23
q0 93 49 231q13 35 27.5 69.5t22.5 50.5l8 17q2 4 2 7q0 6 -4.5 10t-10.5 4z" />
    <glyph glyph-name="m" unicode="m" horiz-adv-x="422" 
d="M249 159q-5 0 -9 -2l-9 -6q-8 -6 -17 -17q-17 -19 -38 -49q-23 -31 -37 -47l-10 -10q0 1 -0.5 2.5t-0.5 3.5v10v11v13q0 27 -1 39q-2 24 -18 33q-12 7 -25 -2q-6 -4 -16 -16q-14 -17 -31 -44q-23 -37 -28 -43l-3 -3v1q0 13 5 33l13 47q0 1 0.5 3l0.5 2q0 6 -4.5 10
t-10.5 4q-9 0 -13 -10q-8 -24 -14 -50q-5 -22 -5 -38q0 -12 2 -18q4 -13 11 -17t15 -2q4 1 10 5t15 15q8 9 30 45q16 26 29 42q2 2 4 4.5t3 3.5q2 -4 2 -8v-10v-12.5v-12.5v-13v-13v-12q2 -10 4 -17q4 -10 14 -15q9 -4 15 -2q4 1 10 5q8 5 18 17q17 18 39 49q20 27 37 48
l1 1q-3 -13 -6 -35q-2 -17 -2 -26q0 -13 3 -23q9 -30 39 -36q6 -1 12 -1q22 0 49 14q26 14 53 39q14 13 28 28t20 23l7 9q3 3 3 9t-4 10t-10 4q-8 0 -11 -5q-22 -30 -52 -57q-27 -25 -47 -35q-19 -10 -35 -10q-4 0 -7 1q-14 2 -18 15q-2 6 -2 14q0 9 2 23q1 8 4 22t4 20
q2 12 1 19q0 4 -3 10t-10 9q-1 1 -5 1h-1z" />
    <glyph glyph-name="n" unicode="n" horiz-adv-x="273" 
d="M111 160q-1 0 -2.5 -0.5t-2.5 -0.5q-6 -1 -11 -5q-6 -4 -17 -17q-13 -16 -34 -51q-21 -34 -32 -49q0 -1 -2 -2.5t-2 -2.5v1q0 10 4 34l11 47l1 2v2q0 14 -14 14q-11 0 -14 -10q-7 -24 -12 -50q-5 -32 -5 -39q0 -9 3 -18q4 -12 11 -16t16 -2q2 0 10 6q10 8 16 17
q13 18 33 51q18 29 32 48q3 4 8 9q2 -6 2 -11v-21t1 -23q2 -33 7 -47q7 -16 12 -20q11 -9 24 -9q42 0 96 58q12 12 22.5 26t15.5 21l5 8q3 6 3 8q0 14 -15 14q-9 0 -12 -6q-16 -26 -40 -52q-44 -48 -75 -48q-4 0 -5 1l-4 8q-3 9 -5 39q0 7 -0.5 23t-1.5 23q-2 14 -4 20
q-4 13 -13 17q-6 3 -8 3h-2z" />
    <glyph glyph-name="o" unicode="o" horiz-adv-x="251" 
d="M71 182q-6 0 -18 -4q-18 -8 -26 -25q-3 -7 -3 -15q0 -12 6 -23q18 -34 51 -51q-22 -33 -46 -39q-9 -3 -13 -1t-5 4q-5 8 -4 29q1 7 2 15.5t2.5 15.5t2.5 13t2 10l1 3q0 1 0.5 2.5l0.5 1.5q0 6 -4 10t-10 4q-10 0 -14 -10q-11 -32 -12 -64v-7q0 -23 10 -39q6 -10 20 -15
q12 -4 29 1q38 11 66 57q11 -2 22 -2q24 0 48 8q22 7 44.5 18.5t33.5 19.5l11 8q6 4 6 11q0 6 -4 10t-10 4t-9 -3q-37 -27 -80 -40q-23 -7 -43 -7h-6q8 21 8 37t-7 29q-19 34 -52 34zM73 154q15 0 25 -20q3 -4 3 -13q0 -15 -7 -32q-24 11 -39 39q-4 8 -1 14q4 8 10 10
q4 2 8 2h1z" />
    <glyph glyph-name="p" unicode="p" horiz-adv-x="275" 
d="M143 174q-52 0 -97 -68q-14 -22 -29 -55l11 64v3q0 6 -4 10t-10 4q-12 0 -14 -12l-56 -324l-4 -22v-2q0 -6 4 -10.5t10 -4.5q12 0 14 12l4 22q18 96 41 170l12 36h8q32 0 63 19q30 18 57 56q4 5 10 15q57 17 110 17h7h1q6 0 10 4t4 10t-4 10t-10 4h-9q-45 0 -95 -12
q2 8 2 13q2 17 -8 28q-11 13 -28 13zM143 145q6 0 6 -2l1 -3v-5q0 -7 -7 -24q-19 -7 -44 -17q-18 -8 -39 -20q1 2 10 17q37 54 73 54zM115 70q-17 -19 -34 -30q-16 -11 -36 -14l9 9q23 19 56 33q1 0 2.5 0.5t2.5 1.5z" />
    <glyph glyph-name="q" unicode="q" horiz-adv-x="293" 
d="M131 179q-11 0 -14 -9l-1 -3q0 -2 -4 -9q-19 10 -34 12q-6 1 -11 1q-37 0 -60 -31q-28 -38 -40 -83q-4 -16 -4 -26q0 -5 1 -9q2 -10 7 -16q7 -9 17 -9q8 -1 22 7q7 4 21 16q23 20 47 47q1 1 2.5 3.5t2.5 3.5q-22 -69 -32 -100q-25 -82 -35 -136q-4 -27 -4 -42v-7
q2 -13 5 -19q6 -11 18 -13h3q15 0 27 10q13 11 21 26q19 30 30 80q10 46 10 86q0 41 -10 71h11q52 0 113 31q11 6 22.5 13t19.5 12.5t14.5 10.5t10.5 7l3 3q5 3 5 11q0 6 -4 10t-10 4t-9 -3q-27 -23 -65 -43q-55 -28 -100 -28q-9 0 -18 1q24 71 32 92q0 1 1 3l2 4v2l0.5 1
l0.5 1v3q0 6 -4 10t-10 4zM63 143q8 0 11 -1q14 -2 22 -8q-16 -21 -39 -48q-21 -23 -45 -44q-3 -2 -17 -13q-2 -2 -3 -2q0 13 3 23q12 42 35 73q14 20 33 20zM92 9q5 -23 5 -51q0 -40 -9 -78q-12 -48 -26 -72q-4 -7 -15 -18q-4 -4 -6 -4l-0.5 2t-0.5 3v5q0 11 4 37
q8 48 34 133q4 15 14 43z" />
    <glyph glyph-name="r" unicode="r" horiz-adv-x="245" 
d="M89 162q-9 0 -16 -5q-8 -5 -18 -17q-11 -13 -33 -49q-2 -3 -6 -9.5t-6 -10.5l13 42q1 1 1 5q0 6 -4 10t-10 4q-9 0 -13 -9q-10 -24 -16 -50t-6 -39q0 -15 1 -18q4 -13 12 -17q4 -2 7 -2q9 0 13 8q18 37 39 72q18 30 30 45l4 4t4 3.5t2 2.5q5 -4 13 -23q14 -32 38 -40h1
q8 -2 17 -2q20 0 61 17q11 4 21.5 9.5t15.5 9.5l5 3q7 4 7 12q0 6 -4 10t-10 4q-4 0 -8 -2q-16 -10 -38 -20q-32 -14 -52 -14q-4 0 -7 1q-13 4 -21 23q0 1 -2 5t-2.5 6t-2.5 6t-4 6.5t-4.5 5.5t-5.5 5.5t-7 4.5q-6 3 -7 3h-2z" />
    <glyph glyph-name="s" unicode="s" horiz-adv-x="223" 
d="M55 185h-1l-1.5 -0.5t-2.5 -0.5q-14 -5 -27 -15q-23 -18 -23 -44q0 -5 1 -10q5 -24 22 -66q-6 -5 -17 -16q-35 -38 -38 -67q0 -11 3 -16q5 -9 13 -12q6 -3 14 -3t22 5q33 11 42 35q4 10 4 22t-4 27q-2 9 -5 17q80 63 171 63h1q14 0 14 14t-14 14h-1q-97 0 -182 -63
q-16 41 -18 52q-3 14 12 26l19 10q10 3 10 13q0 15 -14 15zM33 20l0.5 -1t0.5 -2q3 -11 3 -19q0 -7 -2 -12q-6 -13 -24 -19q-8 -3 -14 -3q0 6 8 21t22 29z" />
    <glyph glyph-name="t" unicode="t" horiz-adv-x="238" 
d="M122 487q-9 0 -13 -8q-30 -60 -59 -140l-3 -9h-81q-6 0 -10.5 -4t-4.5 -10t4.5 -10.5t10.5 -4.5h71q-38 -116 -38 -200q0 -15 1 -28q5 -57 42 -73q12 -5 26 -5q21 0 51 12q37 15 74.5 44t63.5 57q4 4 4 10t-4 10t-10 4q-8 0 -11 -5q-22 -25 -59 -52.5t-69 -40.5
q-22 -10 -40 -10q-9 0 -15 3q-21 9 -25 48q-1 12 -1 25q0 79 40 201h119h1q14 0 14 15q0 14 -14 14h-1h-109q12 35 26.5 69t22.5 51l9 16q1 2 1 7q0 14 -14 14z" />
    <glyph glyph-name="u" unicode="u" horiz-adv-x="328" 
d="M149 147q-9 0 -12 -6q-6 -9 -16 -22.5t-39.5 -43.5t-56.5 -45q-9 -5 -12 -5q-3 7 -2 27q1 12 4.5 27.5t5.5 24.5l3 10l0.5 1.5t0.5 2.5q0 6 -4.5 10t-10.5 4q-10 0 -13 -10q-12 -35 -15 -67q-1 -9 -1 -15q0 -17 8 -30q9 -13 22 -13q12 0 28 8q43 24 85 72q-1 -8 -1 -15
q0 -20 6 -35q8 -18 25 -26q9 -4 22 -4q7 0 14 1q69 14 156 110q4 4 4 10t-4.5 10t-10.5 4q-7 0 -10 -4q-35 -38 -75.5 -67.5t-65.5 -34.5q-12 -3 -19 1q-5 3 -9 11q-3 9 -3 25q0 27 10 66v4q0 6 -4 10t-10 4z" />
    <glyph glyph-name="v" unicode="v" horiz-adv-x="354" 
d="M162 162q-11 0 -14 -10q-1 -4 -3 -10.5t-10 -24t-17 -32.5t-24 -31.5t-31 -25.5q-5 -3 -10 -3q-3 0 -6 3q-7 7 -14 31q-3 12 -5.5 26.5t-2.5 23.5l-1 9q0 6 -4 10t-10 4t-10.5 -4t-4.5 -10v-1q1 -34 10 -66q7 -28 22 -43q11 -11 22 -12q13 -1 28 7q56 31 87 110
q33 -41 94 -41q53 0 109 34q7 4 7 12q0 6 -4 10t-10 4q-4 0 -8 -2q-50 -30 -94 -30q-33 0 -55.5 16t-27.5 36q-3 10 -13 10z" />
    <glyph glyph-name="w" unicode="w" horiz-adv-x="468" 
d="M264 171q-10 0 -14 -9q-14 -38 -32 -75q-14 -28 -29 -48q-7 -9 -12 -12l-3 -2q-8 4 -15 18q-13 25 -17 43q-4 14 -7 30t-5 25l-1 9q-2 12 -14 12t-14 -12q-7 -36 -18 -70q-11 -32 -20 -43q-5 -6 -11 -10q-4 -3 -7 -2q-3 0 -9 12q-4 8 -8 33l-4 48q0 6 -4 10t-10 4
t-10.5 -4t-4.5 -10q1 -26 5 -53q4 -24 10 -39q10 -23 28 -28l1 -1q12 -2 27 5q11 6 20 18q12 15 24 51q1 2 2.5 5.5t1.5 5.5l0.5 -1t0.5 -2q11 -36 18 -50q14 -26 35 -31q14 -3 25 5q7 5 18 18q15 20 32 53q5 10 23 52q11 -11 17 -15q25 -17 58 -26q25 -6 50 -6q53 0 93 27
q6 4 6 12q0 6 -4 10t-10 4q-4 0 -8 -2q-32 -23 -77 -23q-22 0 -43 6q-30 8 -49 21q-18 12 -22 27q-3 10 -13 10z" />
    <glyph glyph-name="x" unicode="x" horiz-adv-x="297" 
d="M155 163q-5 0 -9 -4q-31 -26 -65 -58q-5 -4 -14.5 -13t-13.5 -14q-8 11 -15.5 23.5t-10.5 18.5l-3 7q-4 9 -13 9q-15 0 -15 -14q0 -4 1 -5q12 -28 34 -57q1 -1 3 -4l-1 -1l-1 -1q-24 -29 -30 -49q0 -1 -0.5 -2t-0.5 -2q0 -14 14 -14q11 0 14 10t25 38q38 -34 84 -34
q50 0 122 57q15 12 29.5 26t20.5 22l7 7q4 4 4 9q0 14 -15 14q-8 0 -11 -5q-21 -25 -53 -51q-62 -50 -104 -50q-34 0 -65 27q4 4 13 13.5t14 14.5l64 56q6 4 6 11q0 6 -4.5 10.5t-10.5 4.5z" />
    <glyph glyph-name="y" unicode="y" horiz-adv-x="321" 
d="M146 179q-5 0 -9 -3.5t-5 -7.5q-3 -12 -14 -34q-13 -25 -29 -52q-18 -30 -36 -46t-26 -16q-11 1 -14 7q-4 8 -4 22q0 21 14 65l0.5 2l0.5 2q0 6 -4 10t-10 4q-11 0 -14 -10q-15 -48 -16 -73q0 -23 9 -37q12 -18 36 -20h2q23 0 46 23q21 21 40 51q2 3 13 22q-2 -14 -8 -64
q-31 -24 -73 -64q-71 -70 -96 -119q-12 -24 -12 -41q0 -4 1 -9q2 -12 12 -21t24 -12q11 -2 21 -2q22 0 41 10q24 14 46 45q34 52 53 141q3 15 10 56q40 30 60 43q80 50 126 53q5 0 9.5 4.5t4.5 9.5q0 6 -4 10t-10 4h-2q-57 -4 -139 -57q-13 -8 -39 -26q3 29 5.5 58t2.5 43
l1 15q0 6 -4 10t-10 4zM111 -19q-2 -12 -4 -22q-20 -89 -49 -133q-18 -26 -35 -35q-15 -8 -29 -8q-7 0 -14 2q-9 2 -11.5 4.5t-2.5 8.5q0 10 9 30q25 50 90 112q6 6 46 41z" />
    <glyph glyph-name="z" unicode="z" horiz-adv-x="339" 
d="M135 168q-16 0 -38 -5q-19 -4 -42 -11.5t-36 -12.5l-13 -5q-9 -4 -9 -13q0 -15 14 -15q5 0 6 1q48 19 87 28q16 4 31 4q5 0 8 -1q-3 -6 -8 -13q-22 -31 -80 -68l-55 -33q-8 -4 -8 -13q0 -14 14 -14h113q62 0 156 55q20 12 40 26t30 22l10 7q6 4 6 11q0 14 -14 14
q-6 0 -9 -3q-34 -26 -78 -52q-86 -51 -141 -51h-59q5 3 11 7q62 40 88 76q13 18 13 31q0 16 -17 24q-9 4 -20 4z" />
    <glyph glyph-name="braceleft" unicode="{" horiz-adv-x="349" 
d="M205 592h-4h-11q-25 -2 -41 -16q-28 -25 -28 -67v-9q1 -16 20 -82q12 -43 12 -74v-11q-3 -48 -39 -89l-60 -72q-4 -4 -4 -9q0 -6 4 -10q24 -29 53 -44q31 -16 31 -46v-9q-2 -27 -34 -89q-35 -68 -45 -101q-7 -22 -7 -41q0 -32 19 -54q13 -15 40 -19q12 -2 27 -2q9 0 19 1
q13 1 27 3t21 4l7 2q4 1 7.5 5t3.5 9q0 6 -4 10t-10 4q-1 0 -2.5 -0.5l-1.5 -0.5q-24 -6 -51 -8q-9 -1 -17 -1q-13 0 -22 2q-16 3 -23 10q-12 13 -12 32q0 14 7 35q9 29 43 97q33 66 36 100v9q0 51 -46 74q-17 9 -36 28q2 3 21.5 26.5t29.5 35.5q44 49 47 106v11
q0 32 -14 84q-18 65 -19 76v9q0 26 19 44q6 6 25 8q8 1 15 1q12 0 23 -2l49 -10h2l2 -1q6 0 10.5 4.5t4.5 10.5q0 9 -11 13q-24 7 -53 11q-18 2 -30 2z" />
    <glyph glyph-name="bar" unicode="|" horiz-adv-x="205" 
d="M141 580q-12 0 -14 -13q-65 -627 -77 -788v-1q0 -14 14 -14q5 0 9.5 4t4.5 9q5 71 24.5 267.5t35.5 357.5l17 162v2q0 14 -14 14z" />
    <glyph glyph-name="braceright" unicode="}" horiz-adv-x="348" 
d="M214 592q-15 0 -22 -1q-13 -1 -27 -3t-22 -4l-7 -2q-11 -2 -11 -13q0 -6 4 -10.5t10 -4.5l1.5 0.5t2.5 0.5q24 6 51 8q9 1 17 1q13 0 22 -2q16 -3 23 -10q12 -14 12 -33q0 -14 -6 -34q-7 -24 -44 -97q-33 -66 -36 -99v-9q0 -52 46 -75q17 -9 36 -28q-2 -3 -21.5 -26.5
t-29.5 -35.5q-44 -49 -47 -106v-11q0 -32 14 -84q18 -65 19 -76v-9q0 -26 -19 -44q-7 -7 -24 -8q-8 -1 -16 -1q-12 0 -23 2q-12 1 -24 3.5t-19 4.5l-6 2q-1 0 -2.5 0.5l-1.5 0.5q-6 0 -10 -4t-4 -10q0 -11 10 -14q25 -7 54 -11q17 -2 33 -2h12q25 2 41 16q28 25 28 67v9
q-1 16 -20 82q-13 47 -13 75v10q3 48 39 89l61 73q3 3 3 9q0 5 -4 9q-24 29 -53 44q-30 15 -30 45v10q2 30 33 89q35 68 45 101q7 22 7 41q0 32 -19 54q-14 17 -40 20q-8 1 -23 1z" />
    <glyph glyph-name="asciitilde" unicode="~" horiz-adv-x="449" 
d="M315 238h-12q-28 -3 -92 -29q-58 -24 -80 -27q-7 -1 -12 -1q-27 0 -44 23q-4 6 -11 6q-6 0 -10 -4t-4 -10t3 -9q26 -34 70 -34q5 0 11 1q24 2 88 29q55 23 84 26q7 1 13 1q32 0 56 -25q4 -4 10 -4q14 0 14 14q0 6 -4 10q-33 33 -80 33z" />
    <glyph glyph-name="cent" unicode="&#xa2;" horiz-adv-x="342" 
d="M202 487h-1q-6 0 -10 -4t-4 -10q-3 -63 -10 -154q-18 -5 -38 -19q-31 -21 -52.5 -53.5t-30.5 -68.5q-6 -22 -6 -42q0 -55 38 -83q24 -18 63 -21q-12 -103 -20 -152l-0.5 -0.5t-0.5 -1.5q0 -6 4.5 -10.5t10.5 -4.5q12 0 14 13q11 70 21 156q41 3 103 26q10 4 10 14
q0 6 -4.5 10t-10.5 4q-4 0 -5 -1q-50 -19 -90 -24q12 110 21 235h8q30 0 58 -19q4 -2 9 -2q6 0 10 4t4 10q0 9 -7 12q-36 23 -73 23h-4h-3l9 148v1q0 14 -13 14zM175 288q-9 -123 -21 -228q-29 1 -49 16q-27 19 -27 60q0 17 5 35q7 31 26.5 60t45.5 46q10 7 20 11z" />
    <glyph glyph-name="sterling" unicode="&#xa3;" horiz-adv-x="366" 
d="M277 487q-1 0 -3 -1q-117 -33 -156 -121q-20 -46 -20 -110q0 -29 4 -67q0 -3 1 -9t1 -9h-40q-14 0 -14 -14t14 -14h44q17 -110 19 -129q2 -20 2 -37q0 -59 -25 -89q-3 -3 -3 -9q0 -14 14 -14h186h1q14 0 14 14t-14 14h-1h-160q16 33 16 83q0 18 -2 40q-4 43 -18 127h131
q6 0 10.5 4t4.5 10t-4.5 10t-10.5 4h-135q-1 4 -2 11.5t-1 10.5q-4 33 -4 61q0 59 18 100q33 75 138 106q10 3 10 14q0 14 -14 14h-1z" />
    <glyph glyph-name="Agrave" unicode="&#xc0;" horiz-adv-x="611" 
d="M435 680h-1q-14 0 -14 -14q0 -6 4 -10l41 -44q4 -4 10 -4q14 0 14 14q0 7 -3 10l-41 43q-5 5 -10 5zM480 569q-30 0 -68 -33q-34 -30 -73 -81q-75 -98 -154 -247q-41 -76 -77 -156q-52 -9 -98 -24q-10 -3 -10 -13q0 -6 4 -10.5t10 -4.5q1 0 3 0.5l2 0.5q48 14 74 19
q-13 -29 -31 -76q-25 -65 -34 -102q-7 -31 -7 -48q0 -11 2 -20q3 -10 13 -10q6 0 10.5 4t4.5 10l-0.5 2l-0.5 2q-1 3 -1 9q0 17 7 44q12 45 33 99q14 37 39 92q122 21 276 21q44 0 83 -2q-9 -63 -20.5 -127t-17.5 -96l-7 -33v-3q0 -6 4 -10.5t10 -4.5q5 0 9 3.5t5 8.5
q24 118 45 261l8 -1h1q6 0 10.5 4t4.5 10q0 5 -4.5 10t-9.5 5h-6q2 15 6.5 47.5t6.5 49.5q15 133 15 222q0 24 -1 45q-3 56 -16 91q-8 19 -19 30q-12 12 -31 12zM480 541q7 0 12 -5q6 -6 12 -19q11 -28 14 -83q1 -20 1 -43q0 -87 -15 -219q-8 -66 -13 -98h-10q-34 2 -62 2
h-21q-134 0 -255 -18h-1q33 71 69 137q80 149 151 243q42 54 69 77q30 26 49 26z" />
    <glyph glyph-name="Aacute" unicode="&#xc1;" horiz-adv-x="611" 
d="M545 683h-1q-7 0 -11 -6l-35 -44q-3 -3 -3 -9q0 -14 14 -14q9 0 12 5l34 45q3 3 3 9q0 14 -13 14zM480 569q-30 0 -68 -33q-34 -30 -73 -81q-75 -98 -154 -247q-41 -76 -77 -156q-52 -9 -98 -24q-10 -3 -10 -13q0 -6 4 -10.5t10 -4.5q1 0 3 0.5l2 0.5q48 14 74 19
q-13 -29 -31 -76q-25 -65 -34 -102q-7 -31 -7 -48q0 -11 2 -20q3 -10 13 -10q6 0 10.5 4t4.5 10l-0.5 2l-0.5 2q-1 3 -1 9q0 17 7 44q12 45 33 99q14 37 39 92q122 21 276 21q44 0 83 -2q-9 -63 -20.5 -127t-17.5 -96l-7 -33v-3q0 -6 4 -10.5t10 -4.5q5 0 9 3.5t5 8.5
q24 118 45 261l8 -1h1q6 0 10.5 4t4.5 10q0 5 -4.5 10t-9.5 5h-6q2 15 6.5 47.5t6.5 49.5q15 133 15 222q0 24 -1 45q-3 56 -16 91q-8 19 -19 30q-12 12 -31 12zM480 541q7 0 12 -5q6 -6 12 -19q11 -28 14 -83q1 -20 1 -43q0 -87 -15 -219q-8 -66 -13 -98h-10q-34 2 -62 2
h-21q-134 0 -255 -18h-1q33 71 69 137q80 149 151 243q42 54 69 77q30 26 49 26z" />
    <glyph glyph-name="Acircumflex" unicode="&#xc2;" horiz-adv-x="611" 
d="M492 687q-8 0 -11 -5l-42 -50q-3 -3 -3 -9q0 -14 14 -14q8 0 11 5q17 19 30 35l30 -39q3 -5 11 -5q14 0 14 14q0 6 -4 10q-26 31 -38 51q-4 7 -12 7zM480 569q-30 0 -68 -33q-34 -30 -73 -81q-75 -98 -154 -247q-41 -76 -77 -156q-52 -9 -98 -24q-10 -3 -10 -13
q0 -6 4 -10.5t10 -4.5q1 0 3 0.5l2 0.5q48 14 74 19q-13 -29 -31 -76q-25 -65 -34 -102q-7 -31 -7 -48q0 -11 2 -20q3 -10 13 -10q6 0 10.5 4t4.5 10l-0.5 2l-0.5 2q-1 3 -1 9q0 17 7 44q12 45 33 99q14 37 39 92q122 21 276 21q44 0 83 -2q-9 -63 -20.5 -127t-17.5 -96
l-7 -33v-3q0 -6 4 -10.5t10 -4.5q5 0 9 3.5t5 8.5q24 118 45 261l8 -1h1q6 0 10.5 4t4.5 10q0 5 -4.5 10t-9.5 5h-6q2 15 6.5 47.5t6.5 49.5q15 133 15 222q0 24 -1 45q-3 56 -16 91q-8 19 -19 30q-12 12 -31 12zM480 541q7 0 12 -5q6 -6 12 -19q11 -28 14 -83q1 -20 1 -43
q0 -87 -15 -219q-8 -66 -13 -98h-10q-34 2 -62 2h-21q-134 0 -255 -18h-1q33 71 69 137q80 149 151 243q42 54 69 77q30 26 49 26z" />
    <glyph glyph-name="Atilde" unicode="&#xc3;" horiz-adv-x="611" 
d="M508 669q-6 0 -9 -1q-15 -4 -31 -22q-10 -12 -16 -12q-8 0 -22 15q-3 5 -11 5q-6 0 -10 -4t-4 -10t4 -10q23 -24 42 -24h5q16 2 32 20q11 12 18 14q9 2 24 -11q4 -4 10 -4q14 0 14 14q0 8 -5 11q-19 17 -38 19h-3zM480 569q-30 0 -68 -33q-34 -30 -73 -81
q-75 -98 -154 -247q-41 -76 -77 -156q-52 -9 -98 -24q-10 -3 -10 -13q0 -6 4 -10.5t10 -4.5q1 0 3 0.5l2 0.5q48 14 74 19q-13 -29 -31 -76q-25 -65 -34 -102q-7 -31 -7 -48q0 -11 2 -20q3 -10 13 -10q6 0 10.5 4t4.5 10l-0.5 2l-0.5 2q-1 3 -1 9q0 17 7 44q12 45 33 99
q14 37 39 92q122 21 276 21q44 0 83 -2q-9 -63 -20.5 -127t-17.5 -96l-7 -33v-3q0 -6 4 -10.5t10 -4.5q5 0 9 3.5t5 8.5q24 118 45 261l8 -1h1q6 0 10.5 4t4.5 10q0 5 -4.5 10t-9.5 5h-6q2 15 6.5 47.5t6.5 49.5q15 133 15 222q0 24 -1 45q-3 56 -16 91q-8 19 -19 30
q-12 12 -31 12zM480 541q7 0 12 -5q6 -6 12 -19q11 -28 14 -83q1 -20 1 -43q0 -87 -15 -219q-8 -66 -13 -98h-10q-34 2 -62 2h-21q-134 0 -255 -18h-1q33 71 69 137q80 149 151 243q42 54 69 77q30 26 49 26z" />
    <glyph glyph-name="Adieresis" unicode="&#xc4;" horiz-adv-x="611" 
d="M479 665q-11 0 -14 -10l-8 -24q0 -1 -0.5 -3l-0.5 -2q0 -14 15 -14q10 0 13 10l8 24v2q1 2 1 3q0 14 -14 14zM528 665q-11 0 -14 -10l-8 -24q0 -1 -0.5 -3l-0.5 -2q0 -14 15 -14q10 0 13 10l8 24l1 2v3q0 14 -14 14zM480 569q-30 0 -68 -33q-34 -30 -73 -81
q-75 -98 -154 -247q-41 -76 -77 -156q-52 -9 -98 -24q-10 -3 -10 -13q0 -6 4 -10.5t10 -4.5q1 0 3 0.5l2 0.5q48 14 74 19q-13 -29 -31 -76q-25 -65 -34 -102q-7 -31 -7 -48q0 -11 2 -20q3 -10 13 -10q6 0 10.5 4t4.5 10l-0.5 2l-0.5 2q-1 3 -1 9q0 17 7 44q12 45 33 99
q14 37 39 92q122 21 276 21q44 0 83 -2q-9 -63 -20.5 -127t-17.5 -96l-7 -33v-3q0 -6 4 -10.5t10 -4.5q5 0 9 3.5t5 8.5q24 118 45 261l8 -1h1q6 0 10.5 4t4.5 10q0 5 -4.5 10t-9.5 5h-6q2 15 6.5 47.5t6.5 49.5q15 133 15 222q0 24 -1 45q-3 56 -16 91q-8 19 -19 30
q-12 12 -31 12zM480 541q7 0 12 -5q6 -6 12 -19q11 -28 14 -83q1 -20 1 -43q0 -87 -15 -219q-8 -66 -13 -98h-10q-34 2 -62 2h-21q-134 0 -255 -18h-1q33 71 69 137q80 149 151 243q42 54 69 77q30 26 49 26z" />
    <glyph glyph-name="Aring" unicode="&#xc5;" horiz-adv-x="611" 
d="M510 665q-18 0 -31.5 -11t-20.5 -26q-4 -9 -4 -17q0 -7 4 -14q9 -17 32 -17q18 0 30.5 11.5t16.5 27.5q5 15 -1 28q-8 18 -26 18zM509 636v-1.5v-4v-4.5q-6 -17 -19 -17l-7 1q-1 3 1 7q3 7 10.5 13t14.5 6zM480 569q-30 0 -68 -33q-34 -30 -73 -81q-75 -98 -154 -247
q-41 -76 -77 -156q-52 -9 -98 -24q-10 -3 -10 -13q0 -6 4 -10.5t10 -4.5q1 0 3 0.5l2 0.5q48 14 74 19q-13 -29 -31 -76q-25 -65 -34 -102q-7 -31 -7 -48q0 -11 2 -20q3 -10 13 -10q6 0 10.5 4t4.5 10q0 1 -0.5 2.5l-0.5 1.5q-1 3 -1 9q0 17 7 44q12 45 33 99q14 37 39 92
q122 21 276 21q44 0 83 -2q-9 -63 -20.5 -127t-17.5 -96l-7 -33v-3q0 -6 4 -10.5t10 -4.5q5 0 9 3.5t5 8.5q24 118 45 261l8 -1h1q6 0 10.5 4t4.5 10q0 5 -4.5 10t-9.5 5h-6q2 15 6.5 47.5t6.5 49.5q15 133 15 222q0 24 -1 45q-3 56 -16 91q-8 19 -19 30q-12 12 -31 12z
M480 541q7 0 12 -5q6 -6 12 -19q11 -28 14 -83q1 -20 1 -43q0 -87 -15 -219q-8 -66 -13 -98h-10q-34 2 -62 2h-21q-134 0 -255 -18h-1q33 71 69 137q80 149 151 243q42 54 69 77q30 26 49 26z" />
    <glyph glyph-name="Ccedilla" unicode="&#xc7;" horiz-adv-x="735" 
d="M478 570q-64 0 -193 -102h-1q-194 -164 -259 -351q-25 -71 -25 -135q0 -86 44 -142q41 -53 114 -64q-4 -16 -13.5 -26t-16.5 -12l-8 -2q-12 -2 -12 -14q0 -6 4.5 -10t10.5 -4h3q2 0 5.5 1.5t12 6t16 11t15.5 18t11 26.5l0.5 1l0.5 1h9q52 0 111 19q202 64 447 316
q4 4 4 10t-4.5 10t-10.5 4t-10 -4q-241 -247 -434 -309q-56 -18 -103 -18q-85 0 -130 57q-37 46 -37 123q0 59 23 126q28 83 91 170.5t159 168.5q122 96 176 96q20 0 28.5 -17t8.5 -50v-15v-1q0 -6 4 -10t10 -4q5 0 10 4t5 9v18q0 39 -12 62q-18 32 -54 32z" />
    <glyph glyph-name="Egrave" unicode="&#xc8;" horiz-adv-x="617" 
d="M470 680h-1q-14 0 -14 -14q0 -6 4 -10l41 -44q4 -4 10 -4q14 0 14 14q0 7 -3 10l-41 43q-5 5 -10 5zM536 560q-28 0 -70 -10q-73 -19 -125 -53q-63 -41 -77 -90q-5 -16 -5 -31q0 -39 28 -69q30 -33 91 -56q18 -7 23 -8q-120 -18 -227 -82q-78 -47 -126 -107t-48 -122
q0 -77 74 -120q60 -35 153 -35h8q97 2 189 39.5t144 106.5q3 3 3 9t-4.5 10t-10.5 4q-7 0 -11 -6q-47 -62 -134 -98t-176 -37h-7q-82 0 -139 32q-60 34 -60 96q0 51 43.5 105.5t115.5 97.5q65 39 141.5 61.5t148.5 22.5q20 0 40 -2h2q6 0 10 4t4 10q0 12 -13 14
q-70 7 -133 31q-54 20 -80 49q-21 23 -21 49q0 11 4 24q11 38 66 74q53 34 115 50q33 9 63 9q21 0 34 -5q13 -4 18 -14q5 -9 -2 -28l-0.5 -2t-0.5 -3q0 -6 4 -10.5t10 -4.5q10 0 14 10q6 16 6 29q0 11 -5 21q-10 21 -35 29q-16 6 -38 6h-4z" />
    <glyph glyph-name="Eacute" unicode="&#xc9;" horiz-adv-x="617" 
d="M583 683h-1q-7 0 -11 -6l-35 -44q-3 -3 -3 -9q0 -14 14 -14q9 0 12 5l34 45q3 3 3 9q0 14 -13 14zM536 560q-28 0 -70 -10q-73 -19 -125 -53q-63 -41 -77 -90q-5 -16 -5 -31q0 -39 28 -69q30 -33 91 -56q18 -7 23 -8q-120 -18 -227 -82q-78 -47 -126 -107t-48 -122
q0 -77 74 -120q60 -35 153 -35h8q97 2 189 39.5t144 106.5q3 3 3 9t-4.5 10t-10.5 4q-7 0 -11 -6q-47 -62 -134 -98t-176 -37h-7q-82 0 -139 32q-60 34 -60 96q0 51 43.5 105.5t115.5 97.5q65 39 141.5 61.5t148.5 22.5q20 0 40 -2h2q6 0 10 4t4 10q0 12 -13 14
q-70 7 -133 31q-54 20 -80 49q-21 23 -21 49q0 11 4 24q11 38 66 74q53 34 115 50q33 9 63 9q21 0 34 -5q13 -4 18 -14q5 -9 -2 -28l-0.5 -2t-0.5 -3q0 -6 4 -10.5t10 -4.5q10 0 14 10q6 16 6 29q0 11 -5 21q-10 21 -35 29q-16 6 -38 6h-4z" />
    <glyph glyph-name="Ecircumflex" unicode="&#xca;" horiz-adv-x="617" 
d="M543 687q-8 0 -11 -5l-42 -50q-3 -3 -3 -9q0 -14 14 -14q8 0 11 5q17 19 30 35l30 -39q3 -5 11 -5q14 0 14 14q0 6 -4 10q-26 31 -38 51q-3 7 -12 7zM536 560q-28 0 -70 -10q-73 -19 -125 -53q-63 -41 -77 -90q-5 -16 -5 -31q0 -39 28 -69q30 -33 91 -56q18 -7 23 -8
q-120 -18 -227 -82q-78 -47 -126 -107t-48 -122q0 -77 74 -120q60 -35 153 -35h8q97 2 189 39.5t144 106.5q3 3 3 9t-4.5 10t-10.5 4q-7 0 -11 -6q-47 -62 -134 -98t-176 -37h-7q-82 0 -139 32q-60 34 -60 96q0 51 43.5 105.5t115.5 97.5q65 39 141.5 61.5t148.5 22.5
q20 0 40 -2h2q6 0 10 4t4 10q0 12 -13 14q-70 7 -133 31q-54 20 -80 49q-21 23 -21 49q0 11 4 24q11 38 66 74q53 34 115 50q33 9 63 9q21 0 34 -5q13 -4 18 -14q5 -9 -2 -28l-0.5 -2t-0.5 -3q0 -6 4 -10.5t10 -4.5q10 0 14 10q6 16 6 29q0 11 -5 21q-10 21 -35 29
q-16 6 -38 6h-4z" />
    <glyph glyph-name="Edieresis" unicode="&#xcb;" horiz-adv-x="617" 
d="M525 652q-11 0 -14 -10l-8 -24l-1 -2v-3q0 -14 15 -14q10 0 13 10l8 24q0 1 0.5 3l0.5 2q0 14 -14 14zM574 652q-11 0 -14 -10l-8 -24v-2q-1 -2 -1 -3q0 -14 15 -14q10 0 13 10l8 24q0 1 0.5 3l0.5 2q0 14 -14 14zM536 560q-28 0 -70 -10q-73 -19 -125 -53
q-63 -41 -77 -90q-5 -16 -5 -31q0 -39 28 -69q30 -33 91 -56q18 -7 23 -8q-120 -18 -227 -82q-78 -47 -126 -107t-48 -122q0 -77 74 -120q60 -35 153 -35h8q97 2 189 39.5t144 106.5q3 3 3 9t-4.5 10t-10.5 4q-7 0 -11 -6q-47 -62 -134 -98t-176 -37h-7q-82 0 -139 32
q-60 34 -60 96q0 51 43.5 105.5t115.5 97.5q65 39 141.5 61.5t148.5 22.5q20 0 40 -2h2q6 0 10 4t4 10q0 12 -13 14q-70 7 -133 31q-54 20 -80 49q-21 23 -21 49q0 11 4 24q11 38 66 74q53 34 115 50q33 9 63 9q21 0 34 -5q13 -4 18 -14q5 -9 -2 -28l-0.5 -2t-0.5 -3
q0 -6 4 -10.5t10 -4.5q10 0 14 10q6 16 6 29q0 11 -5 21q-10 21 -35 29q-16 6 -38 6h-4z" />
    <glyph glyph-name="Igrave" unicode="&#xcc;" horiz-adv-x="245" 
d="M170 694h-1q-14 0 -14 -14q0 -6 4 -10l41 -44q4 -4 10 -4q14 0 14 14q0 7 -3 10l-41 43q-5 5 -10 5zM230 590q-20 0 -40 -3l-51 -11q-10 -3 -10 -14q0 -14 14 -14h4q21 6 47 10h1q1 1 2 1q-30 -134 -66 -328q-34 -188 -44 -263q-13 -97 -13 -156v-20q-20 -2 -29 -4
l-38 -12q-7 -4 -7 -13q0 -14 14 -14q3 0 7 2q7 5 29 9t51 4q26 0 56 -3h2q14 0 14 14q0 13 -13 15q-33 3 -57 3v18q0 56 13 153q14 105 43 262l67 334l1 1q31 0 47 -6q1 -1 5 -1q14 0 14 14q0 10 -9 14q-20 8 -47 8h-7z" />
    <glyph glyph-name="Iacute" unicode="&#xcd;" horiz-adv-x="245" 
d="M264 704h-1q-7 0 -11 -6l-35 -44q-3 -3 -3 -9q0 -14 14 -14q9 0 12 5l34 45q3 3 3 9q0 14 -13 14zM230 590q-20 0 -40 -3l-51 -11q-10 -3 -10 -14q0 -14 14 -14h4q21 6 47 10h1q1 1 2 1q-30 -134 -66 -328q-34 -188 -44 -263q-13 -97 -13 -156v-20q-20 -2 -29 -4l-38 -12
q-7 -4 -7 -13q0 -14 14 -14q3 0 7 2q7 5 29 9t51 4q26 0 56 -3h2q14 0 14 14q0 13 -13 15q-33 3 -57 3v18q0 56 13 153q14 105 43 262l67 334l1 1q31 0 47 -6q1 -1 5 -1q14 0 14 14q0 10 -9 14q-20 8 -47 8h-7z" />
    <glyph glyph-name="Icircumflex" unicode="&#xce;" horiz-adv-x="245" 
d="M227 698q-8 0 -11 -5l-42 -50q-3 -3 -3 -9q0 -14 14 -14q8 0 11 5q17 19 30 35l30 -39q3 -5 11 -5q14 0 14 14q0 6 -4 10q-26 31 -38 51q-3 7 -12 7zM230 590q-20 0 -40 -3l-51 -11q-10 -3 -10 -14q0 -14 14 -14h4q21 6 47 10h1q1 1 2 1q-30 -134 -66 -328
q-34 -188 -44 -263q-13 -97 -13 -156v-20q-20 -2 -29 -4l-38 -12q-7 -4 -7 -13q0 -14 14 -14q3 0 7 2q7 5 29 9t51 4q26 0 56 -3h2q14 0 14 14q0 13 -13 15q-33 3 -57 3v18q0 56 13 153q14 105 43 262l67 334l1 1q31 0 47 -6q1 -1 5 -1q14 0 14 14q0 10 -9 14q-20 8 -47 8
h-7z" />
    <glyph glyph-name="Idieresis" unicode="&#xcf;" horiz-adv-x="245" 
d="M205 674q-11 0 -14 -10l-8 -24l-1 -2v-3q0 -14 15 -14q10 0 13 10l8 24q0 1 0.5 3l0.5 2q0 14 -14 14zM254 674q-11 0 -14 -10l-8 -24v-2q-1 -2 -1 -3q0 -14 15 -14q10 0 13 10l8 24q0 1 0.5 3l0.5 2q0 14 -14 14zM230 590q-20 0 -40 -3l-51 -11q-10 -3 -10 -14
q0 -14 14 -14h4q21 6 47 10h1q1 1 2 1q-30 -134 -66 -328q-34 -188 -44 -263q-13 -97 -13 -156v-20q-20 -2 -29 -4l-38 -12q-7 -4 -7 -13q0 -14 14 -14q3 0 7 2q7 5 29 9t51 4q26 0 56 -3h2q14 0 14 14q0 13 -13 15q-33 3 -57 3v18q0 56 13 153q14 105 43 262l67 334l1 1
q31 0 47 -6q1 -1 5 -1q14 0 14 14q0 10 -9 14q-20 8 -47 8h-7z" />
    <glyph glyph-name="Eth" unicode="&#xd0;" horiz-adv-x="824" 
d="M344 -84q57 0 120 -22q-1 -1 -3 -2.5t-3 -1.5q-125 -83 -219 -97q-11 -2 -20 -2q-24 0 -34 9q-7 5 -8 13q-2 10 3 28q7 26 39 46q34 21 83 27q16 2 26 2h16zM544 560q-118 0 -248 -37q-195 -56 -266 -148q-30 -40 -30 -80q0 -15 4 -29q17 -58 95 -110q4 -2 8 -2q6 0 10 4
t4 10q0 9 -6 12q-70 46 -83 94q-3 12 -3 23q0 29 23 60q31 41 99 78t153 61q124 35 243 35q48 0 89 -6q74 -12 116 -44q43 -33 44 -86q0 -69 -25 -139.5t-69 -132t-96.5 -113.5t-113.5 -96q-72 31 -148 31q-1 11 -1 24q0 70 24 173h91h1q6 0 10 4t4 10t-4 10t-10 4h-1h-85
q5 16 9 33q11 40 23.5 79.5t19.5 58.5l7 20q1 1 1 5q0 6 -4 10.5t-10 4.5q-10 0 -14 -10q-26 -71 -50 -161l-10 -40h-91q-6 0 -10 -4t-4 -10t4 -10t10 -4h84q-23 -102 -23 -173q0 -13 1 -25q-7 0 -17 -2q-60 -8 -95 -30q-42 -26 -52 -64q-4 -15 -4 -28q0 -7 1 -13
q3 -17 19 -30q18 -14 48 -14q12 0 27 2q98 14 231 102q4 3 11 7t10 7q24 -12 29 -15q4 -2 8 -2q6 0 10 4t4 10q0 10 -7 13l-18 9q61 46 113 99t96 116t69 135t25 145q-1 67 -55 109q-46 36 -128 49q-33 5 -81 7h-16z" />
    <glyph glyph-name="Ntilde" unicode="&#xd1;" horiz-adv-x="624" 
d="M419 669q-6 0 -9 -1q-15 -4 -31 -22q-10 -12 -16 -12q-8 0 -22 15q-3 5 -11 5q-6 0 -10 -4t-4 -10t4 -10q23 -24 42 -24h5q16 2 32 20q11 12 18 14q9 2 24 -11q4 -4 10 -4q14 0 14 14q0 8 -5 11q-19 17 -38 19h-3zM609 577q-10 0 -13 -10q-46 -144 -76 -263t-61 -270.5
t-40 -190.5q-10 -42 -19 -49q-3 1 -6 4q-24 26 -53 134q-26 97 -48 226.5t-29 223.5v1q-9 87 -24 127q-8 20 -21 28q-7 4 -16 4t-16 -4q-20 -12 -42 -64q-17 -40 -39 -117q-37 -133 -68.5 -307t-36.5 -271l-1 -1q0 -6 4.5 -10t10.5 -4q14 0 14 13q6 96 36.5 270t67.5 303
q19 67 38 112q18 44 31 52l1 1l1 -1q5 -5 9 -15q13 -34 22 -119q7 -95 29.5 -225t49.5 -231q32 -114 59 -145q12 -12 22 -14q14 -3 25 8q16 15 27 63q9 38 40.5 191t61 270.5t74.5 260.5l0.5 2t0.5 3q0 6 -4.5 10t-10.5 4z" />
    <glyph glyph-name="Ograve" unicode="&#xd2;" 
d="M370 680h-1q-14 0 -14 -14q0 -6 4 -10l41 -44q4 -4 10 -4q14 0 14 14q0 7 -3 10l-41 43q-5 5 -10 5zM421 561q-29 0 -54 -10q-60 -23 -111 -84q-65 -19 -117 -73q-52 -53 -86 -127.5t-46 -155.5q-7 -43 -7 -84q0 -121 56 -188q42 -52 110 -59q10 -1 21 -1q64 0 143 38
l2 1q76 49 132.5 108t90 119.5t49.5 119.5t16 117q0 104 -46 181q-37 61 -89 84q-26 11 -57 13q-1 0 -3.5 0.5t-3.5 0.5zM421 532h6q25 -2 46 -11q46 -21 77 -73q42 -70 42 -166q0 -54 -15 -109.5t-46.5 -113t-86 -114t-127.5 -103.5q-71 -34 -129 -34q-10 0 -19 1
q-57 6 -91 48q-49 60 -49 175q0 37 6 75q11 76 43.5 147t80.5 120q30 31 65 50q-51 -76 -91 -188l-0.5 -2t-0.5 -3q0 -6 4 -10t11 -4q9 0 13 9q49 138 114 217q23 6 48 6q42 0 86 -17q1 -1 5 -1q6 0 10 4t4 10q0 9 -9 13q-50 19 -96 19q-9 0 -18 -1q37 35 73 48q20 8 44 8z
" />
    <glyph glyph-name="Oacute" unicode="&#xd3;" 
d="M471 683h-1q-7 0 -11 -6l-35 -44q-3 -3 -3 -9q0 -14 14 -14q9 0 12 5l34 45q3 3 3 9q0 14 -13 14zM421 561q-29 0 -54 -10q-60 -23 -111 -84q-65 -19 -117 -73q-52 -53 -86 -127.5t-46 -155.5q-7 -43 -7 -84q0 -121 56 -188q42 -52 110 -59q10 -1 21 -1q64 0 143 38l2 1
q76 49 132.5 108t90 119.5t49.5 119.5t16 117q0 104 -46 181q-37 61 -89 84q-26 11 -57 13q-1 0 -3.5 0.5t-3.5 0.5zM421 532h6q25 -2 46 -11q46 -21 77 -73q42 -70 42 -166q0 -54 -15 -109.5t-46.5 -113t-86 -114t-127.5 -103.5q-71 -34 -129 -34q-10 0 -19 1q-57 6 -91 48
q-49 60 -49 175q0 37 6 75q11 76 43.5 147t80.5 120q30 31 65 50q-51 -76 -91 -188l-0.5 -2t-0.5 -3q0 -6 4 -10t11 -4q9 0 13 9q49 138 114 217q23 6 48 6q42 0 86 -17q1 -1 5 -1q6 0 10 4t4 10q0 9 -9 13q-50 19 -96 19q-9 0 -18 -1q37 35 73 48q20 8 44 8z" />
    <glyph glyph-name="Ocircumflex" unicode="&#xd4;" 
d="M430 687q-8 0 -11 -5l-42 -50q-3 -3 -3 -9q0 -14 14 -14q8 0 11 5q17 19 30 35l30 -39q3 -5 11 -5q14 0 14 14q0 6 -4 10q-26 31 -38 51q-4 7 -12 7zM421 561q-29 0 -54 -10q-60 -23 -111 -84q-65 -19 -117 -73q-52 -53 -86 -127.5t-46 -155.5q-7 -43 -7 -84
q0 -121 56 -188q42 -52 110 -59q10 -1 21 -1q64 0 143 38l2 1q76 49 132.5 108t90 119.5t49.5 119.5t16 117q0 104 -46 181q-37 61 -89 84q-26 11 -57 13q-1 0 -3.5 0.5t-3.5 0.5zM421 532h6q25 -2 46 -11q46 -21 77 -73q42 -70 42 -166q0 -54 -15 -109.5t-46.5 -113
t-86 -114t-127.5 -103.5q-71 -34 -129 -34q-10 0 -19 1q-57 6 -91 48q-49 60 -49 175q0 37 6 75q11 76 43.5 147t80.5 120q30 31 65 50q-51 -76 -91 -188l-0.5 -2t-0.5 -3q0 -6 4 -10t11 -4q9 0 13 9q49 138 114 217q23 6 48 6q42 0 86 -17q1 -1 5 -1q6 0 10 4t4 10
q0 9 -9 13q-50 19 -96 19q-9 0 -18 -1q37 35 73 48q20 8 44 8z" />
    <glyph glyph-name="Otilde" unicode="&#xd5;" 
d="M459 671q-6 0 -9 -1q-15 -4 -31 -22q-10 -12 -16 -12q-8 0 -22 15q-3 5 -11 5q-6 0 -10 -4t-4 -10t4 -10q23 -24 42 -24h5q16 2 32 20q11 12 18 14q9 2 24 -11q4 -4 10 -4q14 0 14 14q0 8 -5 11q-19 17 -38 19h-3zM421 561q-29 0 -54 -10q-60 -23 -111 -84
q-65 -19 -117 -73q-52 -53 -86 -127.5t-46 -155.5q-7 -43 -7 -84q0 -121 56 -188q42 -52 110 -59q10 -1 21 -1q64 0 143 38l2 1q76 49 132.5 108t90 119.5t49.5 119.5t16 117q0 104 -46 181q-37 61 -89 84q-26 11 -57 13q-1 0 -3.5 0.5t-3.5 0.5zM421 532h6q25 -2 46 -11
q46 -21 77 -73q42 -70 42 -166q0 -54 -15 -109.5t-46.5 -113t-86 -114t-127.5 -103.5q-71 -34 -129 -34q-10 0 -19 1q-57 6 -91 48q-49 60 -49 175q0 37 6 75q11 76 43.5 147t80.5 120q30 31 65 50q-51 -76 -91 -188l-0.5 -2t-0.5 -3q0 -6 4 -10t11 -4q9 0 13 9
q49 138 114 217q23 6 48 6q42 0 86 -17q1 -1 5 -1q6 0 10 4t4 10q0 9 -9 13q-50 19 -96 19q-9 0 -18 -1q37 35 73 48q20 8 44 8z" />
    <glyph glyph-name="Odieresis" unicode="&#xd6;" 
d="M409 665q-11 0 -14 -10l-8 -24q0 -1 -0.5 -3l-0.5 -2q0 -14 15 -14q10 0 13 10l8 24v2q1 2 1 3q0 14 -14 14zM458 665q-11 0 -14 -10l-8 -24q0 -1 -0.5 -3l-0.5 -2q0 -14 15 -14q10 0 13 10l8 24l1 2v3q0 14 -14 14zM421 561q-29 0 -54 -10q-60 -23 -111 -84
q-65 -19 -117 -73q-52 -53 -86 -127.5t-46 -155.5q-7 -43 -7 -84q0 -121 56 -188q42 -52 110 -59q10 -1 21 -1q64 0 143 38l2 1q76 49 132.5 108t90 119.5t49.5 119.5t16 117q0 104 -46 181q-37 61 -89 84q-26 11 -57 13q-1 0 -3.5 0.5t-3.5 0.5zM421 532h6q25 -2 46 -11
q46 -21 77 -73q42 -70 42 -166q0 -54 -15 -109.5t-46.5 -113t-86 -114t-127.5 -103.5q-71 -34 -129 -34q-10 0 -19 1q-57 6 -91 48q-49 60 -49 175q0 37 6 75q11 76 43.5 147t80.5 120q30 31 65 50q-51 -76 -91 -188l-0.5 -2t-0.5 -3q0 -6 4 -10t11 -4q9 0 13 9
q49 138 114 217q23 6 48 6q42 0 86 -17q1 -1 5 -1q6 0 10 4t4 10q0 9 -9 13q-50 19 -96 19q-9 0 -18 -1q37 35 73 48q20 8 44 8z" />
    <glyph glyph-name="multiply" unicode="&#xd7;" horiz-adv-x="307" 
d="M243 280q-8 0 -11 -5l-81 -93q-20 22 -77 79q-5 5 -10 5q-14 0 -14 -15q0 -6 4 -10q30 -28 78 -81l-53 -61q-4 -4 -4 -10q0 -14 15 -14q7 0 10 5l51 59q34 -37 52 -63q3 -6 12 -6q14 0 14 14q0 4 -2 8q-18 28 -56 69l83 95q3 3 3 10q0 14 -14 14z" />
    <glyph glyph-name="Oslash" unicode="&#xd8;" 
d="M421 532h6q25 -2 46 -11q27 -12 50 -37q-316 -423 -454 -615q-40 60 -40 163q0 37 6 75q11 76 43.5 147t80.5 120q30 30 65 50q-51 -76 -91 -188l-0.5 -2t-0.5 -3q0 -6 4 -10t11 -4q9 0 13 9q49 138 114 217q23 6 48 6q42 0 86 -17q1 -1 5 -1q6 0 10 4t4 10q0 9 -9 13
q-50 19 -96 19q-9 0 -18 -1q37 35 73 48q20 8 44 8zM421 561q-29 0 -54 -10q-60 -23 -111 -84q-65 -19 -117 -73q-52 -53 -86 -127.5t-46 -155.5q-7 -43 -7 -84q0 -116 51 -182q-38 -54 -55 -79l-1 -1q-7 -13 5 -19q12 -7 19 4q16 24 51 73q40 -37 96 -43q10 -1 21 -1
q64 0 143 38l2 1q76 49 132.5 108t90 119.5t49.5 119.5t16 117q0 104 -46 181q-7 12 -15 22l60 80l1 2q7 12 -5 19q-11 6 -19 -4q-21 -29 -56 -75q-25 27 -55 40q-26 11 -57 13q-1 0 -3.5 0.5t-3.5 0.5zM541 461q5 -6 9 -13q42 -70 42 -166q0 -54 -15 -109.5t-46.5 -113
t-86 -114t-127.5 -103.5q-71 -34 -129 -34q-10 0 -19 1q-49 5 -82 37q136 188 454 615z" />
    <glyph glyph-name="Ugrave" unicode="&#xd9;" horiz-adv-x="642" 
d="M314 680h-1q-14 0 -14 -14q0 -6 4 -10l41 -44q4 -4 10 -4q14 0 14 14q0 7 -3 10l-41 43q-5 5 -10 5zM585 577h-1q-12 0 -14 -13q-1 -10 -4 -27.5t-15.5 -71t-29.5 -106.5t-49 -126.5t-71 -138t-98.5 -133t-128.5 -120.5q-55 -40 -88 -40h-4q-27 3 -40 39q-13 34 -13 98
q0 66 14 157q14 95 40.5 210t45.5 182l20 68q0 1 0.5 2t0.5 2q0 6 -4 10t-10 4q-11 0 -14 -10q-9 -28 -22 -75t-42 -169.5t-43 -218.5q-15 -100 -15 -164q0 -66 15 -106q8 -24 25 -40t40 -18h7q41 0 104 46q219 163 335 468q-21 -109 -39 -187q-17 -76 -36 -155.5
t-29 -120.5l-10 -41l-0.5 -2l-0.5 -2q0 -6 4 -10t10 -4q4 0 8.5 3.5t5.5 7.5q37 146 75 317q78 352 85 469v1v1q0 6 -4 10t-10 4z" />
    <glyph glyph-name="Uacute" unicode="&#xda;" horiz-adv-x="642" 
d="M398 683h-1q-7 0 -11 -6l-35 -44q-3 -3 -3 -9q0 -14 14 -14q9 0 12 5l34 45q3 3 3 9q0 14 -13 14zM585 577h-1q-12 0 -14 -13q-1 -10 -4 -27.5t-15.5 -71t-29.5 -106.5t-49 -126.5t-71 -138t-98.5 -133t-128.5 -120.5q-55 -40 -88 -40h-4q-27 3 -40 39q-13 34 -13 98
q0 66 14 157q14 95 40.5 210t45.5 182l20 68q0 1 0.5 2t0.5 2q0 6 -4 10t-10 4q-11 0 -14 -10q-9 -28 -22 -75t-42 -169.5t-43 -218.5q-15 -100 -15 -164q0 -66 15 -106q8 -24 25 -40t40 -18h7q41 0 104 46q219 163 335 468q-21 -109 -39 -187q-17 -76 -36 -155.5
t-29 -120.5l-10 -41l-0.5 -2l-0.5 -2q0 -6 4 -10t10 -4q4 0 8.5 3.5t5.5 7.5q37 146 75 317q78 352 85 469v1v1q0 6 -4 10t-10 4z" />
    <glyph glyph-name="Ucircumflex" unicode="&#xdb;" horiz-adv-x="642" 
d="M368 687q-8 0 -11 -5l-42 -50q-3 -3 -3 -9q0 -14 14 -14q8 0 11 5q17 19 30 35l30 -39q3 -5 11 -5q14 0 14 14q0 6 -4 10q-26 31 -38 51q-4 7 -12 7zM585 577h-1q-12 0 -14 -13q-1 -10 -4 -27.5t-15.5 -71t-29.5 -106.5t-49 -126.5t-71 -138t-98.5 -133t-128.5 -120.5
q-55 -40 -88 -40h-4q-27 3 -40 39q-13 34 -13 98q0 66 14 157q14 95 40.5 210t45.5 182l20 68q0 1 0.5 2t0.5 2q0 6 -4 10t-10 4q-11 0 -14 -10q-9 -28 -22 -75t-42 -169.5t-43 -218.5q-15 -100 -15 -164q0 -66 15 -106q8 -24 25 -40t40 -18h7q41 0 104 46q219 163 335 468
q-21 -109 -39 -187q-17 -76 -36 -155.5t-29 -120.5l-10 -41l-0.5 -2l-0.5 -2q0 -6 4 -10t10 -4q4 0 8.5 3.5t5.5 7.5q37 146 75 317q78 352 85 469v1v1q0 6 -4 10t-10 4z" />
    <glyph glyph-name="Udieresis" unicode="&#xdc;" horiz-adv-x="642" 
d="M342 665q-11 0 -14 -10l-8 -24q0 -1 -0.5 -3l-0.5 -2q0 -14 15 -14q10 0 13 10l8 24l1 2v3q0 14 -14 14zM391 665q-11 0 -14 -10l-8 -24q0 -1 -0.5 -3l-0.5 -2q0 -14 15 -14q10 0 13 10l8 24v2q1 2 1 3q0 14 -14 14zM585 577h-1q-12 0 -14 -13q-1 -10 -4 -27.5t-15.5 -71
t-29.5 -106.5t-49 -126.5t-71 -138t-98.5 -133t-128.5 -120.5q-55 -40 -88 -40h-4q-27 3 -40 39q-13 34 -13 98q0 66 14 157q14 95 40.5 210t45.5 182l20 68q0 1 0.5 2t0.5 2q0 6 -4 10t-10 4q-11 0 -14 -10q-9 -28 -22 -75t-42 -169.5t-43 -218.5q-15 -100 -15 -164
q0 -66 15 -106q8 -24 25 -40t40 -18h7q41 0 104 46q219 163 335 468q-21 -109 -39 -187q-17 -76 -36 -155.5t-29 -120.5l-10 -41l-0.5 -2l-0.5 -2q0 -6 4 -10t10 -4q4 0 8.5 3.5t5.5 7.5q37 146 75 317q78 352 85 469v1v1q0 6 -4 10t-10 4z" />
    <glyph glyph-name="Yacute" unicode="&#xdd;" horiz-adv-x="538" 
d="M376 683h-1q-7 0 -11 -6l-35 -44q-3 -3 -3 -9q0 -14 14 -14q9 0 12 5l34 45q3 3 3 9q0 14 -13 14zM553 577h-1q-4 0 -8.5 -3.5t-5.5 -7.5t-25 -103q-12 -34 -28 -65q-97 -194 -309 -317q-59 -34 -95 -34q-28 0 -40 21q-11 20 -11 62q0 45 12 106q14 64 39.5 143.5
t44.5 127.5l19 47q2 4 2 6q0 6 -4 10t-11 4q-9 0 -13 -9q-8 -19 -21 -52t-41.5 -118.5t-42.5 -152.5q-14 -68 -14 -111q0 -48 16 -77q22 -36 65 -36t109 39q185 107 285 266q-34 -124 -76 -236h-3q-67 0 -116 -29t-79 -76q-30 -49 -35 -103q-1 -12 -1 -22q0 -40 15 -63
q12 -18 29 -22q6 -1 12 -1q15 0 28 7q41 21 87 101q45 76 83 179q4 0 11.5 -1t11.5 -2h3q6 0 10 4t4 10q0 12 -12 14q-3 1 -9 1t-9 1q53 144 111 370q11 28 17.5 55t7.5 39l1 13l1 1q0 6 -4 10t-10 4zM388 59q-42 -108 -76 -166q-43 -73 -76 -90q-11 -6 -20 -4q-5 1 -12 11
q-10 16 -10 49v17q5 48 31 91q55 89 163 92z" />
    <glyph glyph-name="agrave" unicode="&#xe0;" horiz-adv-x="267" 
d="M27 279h-1q-14 0 -14 -14q0 -6 4 -10l41 -44q4 -4 10 -4q14 0 14 14q0 7 -3 10l-41 43q-5 5 -10 5zM111 175q-9 0 -13 -10q0 -1 -0.5 -1.5l-0.5 -0.5l-0.5 -1.5t-2 -4t-1.5 -4.5q-12 10 -26 12q-5 1 -11 1q-30 0 -52 -31q-29 -39 -40 -80q-5 -19 -5 -27q0 -3 1 -7
q1 -8 7.5 -16t17.5 -8q9 -1 21 7q1 1 19 16q17 16 42 46q1 2 3.5 5t4.5 5q-1 -9 -1 -17q0 -14 3 -26q4 -21 23 -31q10 -6 22 -6q7 0 14 2q30 6 79 42q42 31 72 69q4 4 4 9q0 6 -4.5 10t-10.5 4q-8 0 -11 -5q-31 -37 -67 -65q-39 -29 -67 -36q-13 -3 -18 1q-8 5 -9 13
q-2 6 -2 14q0 34 20 93q0 1 0.5 3t1.5 3q0 1 0.5 2l0.5 1v1q0 1 0.5 2l0.5 1q0 6 -4.5 10.5t-10.5 4.5zM55 138q1 0 3.5 -0.5t3.5 -0.5l15 -7l1 -1q-13 -19 -33 -45q-19 -25 -40 -44q-14 -11 -15 -12l-1 -1q0 12 2 21q10 36 36 70q15 20 28 20z" />
    <glyph glyph-name="aacute" unicode="&#xe1;" horiz-adv-x="267" 
d="M124 285h-1q-7 0 -11 -6l-35 -44q-3 -3 -3 -9q0 -14 14 -14q9 0 12 5l34 45q3 3 3 9q0 14 -13 14zM111 175q-9 0 -13 -10q0 -1 -0.5 -1.5l-0.5 -0.5l-0.5 -1.5t-2 -4t-1.5 -4.5q-12 10 -26 12q-5 1 -11 1q-30 0 -52 -31q-29 -39 -40 -80q-5 -19 -5 -27q0 -3 1 -7
q1 -8 7.5 -16t17.5 -8q9 -1 21 7q1 1 19 16q17 16 42 46q1 2 3.5 5t4.5 5q-1 -9 -1 -17q0 -14 3 -26q4 -21 23 -31q10 -6 22 -6q7 0 14 2q30 6 79 42q42 31 72 69q4 4 4 9q0 6 -4.5 10t-10.5 4q-8 0 -11 -5q-31 -37 -67 -65q-39 -29 -67 -36q-13 -3 -18 1q-8 5 -9 13
q-2 6 -2 14q0 34 20 93q0 1 0.5 3t1.5 3q0 1 0.5 2l0.5 1v1q0 1 0.5 2l0.5 1q0 6 -4.5 10.5t-10.5 4.5zM55 138q1 0 3.5 -0.5t3.5 -0.5l15 -7l1 -1q-13 -19 -33 -45q-19 -25 -40 -44q-14 -11 -15 -12l-1 -1q0 12 2 21q10 36 36 70q15 20 28 20z" />
    <glyph glyph-name="acircumflex" unicode="&#xe2;" horiz-adv-x="267" 
d="M78 295q-8 0 -11 -5l-42 -50q-3 -3 -3 -9q0 -14 14 -14q8 0 11 5q17 19 30 35l30 -39q3 -5 11 -5q14 0 14 14q0 6 -4 10q-26 31 -38 51q-4 7 -12 7zM111 175q-9 0 -13 -10q0 -1 -0.5 -1.5l-0.5 -0.5l-0.5 -1.5t-2 -4t-1.5 -4.5q-12 10 -26 12q-5 1 -11 1q-30 0 -52 -31
q-29 -39 -40 -80q-5 -19 -5 -27q0 -3 1 -7q1 -8 7.5 -16t17.5 -8q9 -1 21 7q1 1 19 16q17 16 42 46q1 2 3.5 5t4.5 5q-1 -9 -1 -17q0 -14 3 -26q4 -21 23 -31q10 -6 22 -6q7 0 14 2q30 6 79 42q42 31 72 69q4 4 4 9q0 6 -4.5 10t-10.5 4q-8 0 -11 -5q-31 -37 -67 -65
q-39 -29 -67 -36q-13 -3 -18 1q-8 5 -9 13q-2 6 -2 14q0 34 20 93q0 1 0.5 3t1.5 3q0 1 0.5 2l0.5 1v1q0 1 0.5 2l0.5 1q0 6 -4.5 10.5t-10.5 4.5zM55 138q1 0 3.5 -0.5t3.5 -0.5l15 -7l1 -1q-13 -19 -33 -45q-19 -25 -40 -44q-14 -11 -15 -12l-1 -1q0 12 2 21q10 36 36 70
q15 20 28 20z" />
    <glyph glyph-name="atilde" unicode="&#xe3;" horiz-adv-x="267" 
d="M95 264q-6 0 -9 -1q-15 -4 -31 -22q-10 -12 -16 -12q-8 0 -22 15q-3 5 -11 5q-6 0 -10 -4t-4 -10t4 -10q23 -24 42 -24h5q16 2 32 20q11 12 18 14q9 2 24 -11q4 -4 10 -4q14 0 14 14q0 8 -5 11q-19 17 -38 19h-3zM111 175q-9 0 -13 -10q0 -1 -0.5 -1.5l-0.5 -0.5
l-0.5 -1.5t-2 -4t-1.5 -4.5q-12 10 -26 12q-5 1 -11 1q-30 0 -52 -31q-29 -39 -40 -80q-5 -19 -5 -27q0 -3 1 -7q1 -8 7.5 -16t17.5 -8q9 -1 21 7q1 1 19 16q17 16 42 46q1 2 3.5 5t4.5 5q-1 -9 -1 -17q0 -14 3 -26q4 -21 23 -31q10 -6 22 -6q7 0 14 2q30 6 79 42
q42 31 72 69q4 4 4 9q0 6 -4.5 10t-10.5 4q-8 0 -11 -5q-31 -37 -67 -65q-39 -29 -67 -36q-13 -3 -18 1q-8 5 -9 13q-2 6 -2 14q0 34 20 93q0 1 0.5 3t1.5 3q0 1 0.5 2l0.5 1v1q0 1 0.5 2l0.5 1q0 6 -4.5 10.5t-10.5 4.5zM55 138q1 0 3.5 -0.5t3.5 -0.5l15 -7l1 -1
q-13 -19 -33 -45q-19 -25 -40 -44q-14 -11 -15 -12l-1 -1q0 12 2 21q10 36 36 70q15 20 28 20z" />
    <glyph glyph-name="adieresis" unicode="&#xe4;" horiz-adv-x="267" 
d="M53 247q-11 0 -14 -10l-8 -24q0 -1 -0.5 -3l-0.5 -2q0 -6 4.5 -10t10.5 -4q10 0 13 10l8 24l0.5 2t0.5 3q0 6 -4 10t-10 4zM102 247q-11 0 -14 -10l-8 -24q0 -1 -0.5 -3l-0.5 -2q0 -6 4.5 -10t10.5 -4q10 0 13 10l8 24l0.5 2t0.5 3q0 6 -4 10t-10 4zM111 175
q-9 0 -13 -10q0 -1 -0.5 -1.5l-0.5 -0.5l-0.5 -1.5t-2 -4t-1.5 -4.5q-12 10 -26 12q-5 1 -11 1q-30 0 -52 -31q-29 -39 -40 -80q-5 -19 -5 -27q0 -3 1 -7q1 -8 7.5 -16t17.5 -8q9 -1 21 7q1 1 19 16q17 16 42 46q1 2 3.5 5t4.5 5q-1 -9 -1 -17q0 -14 3 -26q4 -21 23 -31
q10 -6 22 -6q7 0 14 2q30 6 79 42q42 31 72 69q4 4 4 9q0 6 -4.5 10t-10.5 4q-8 0 -11 -5q-31 -37 -67 -65q-39 -29 -67 -36q-13 -3 -18 1q-8 5 -9 13q-2 6 -2 14q0 34 20 93q0 1 0.5 3t1.5 3q0 1 0.5 2l0.5 1v1q0 1 0.5 2l0.5 1q0 6 -4.5 10.5t-10.5 4.5zM55 138
q1 0 3.5 -0.5t3.5 -0.5l15 -7l1 -1q-13 -19 -33 -45q-19 -25 -40 -44q-14 -11 -15 -12l-1 -1q0 12 2 21q10 36 36 70q15 20 28 20z" />
    <glyph glyph-name="aring" unicode="&#xe5;" horiz-adv-x="267" 
d="M110 288q-18 0 -31.5 -11t-20.5 -26q-4 -9 -4 -17q0 -7 4 -14q9 -17 32 -17q18 0 30.5 11.5t16.5 27.5q5 15 -1 28q-8 18 -26 18zM109 259v-10q-6 -17 -19 -17l-7 1q-1 3 1 7q3 7 10.5 13t14.5 6zM111 175q-9 0 -13 -10l-0.5 -0.5t-0.5 -1.5l-4 -10q-12 10 -26 12
q-5 1 -11 1q-30 0 -52 -31q-29 -39 -40 -80q-5 -19 -5 -27q0 -3 1 -7q1 -8 7.5 -16t17.5 -8q9 -1 21 7q1 1 19 16q17 16 42 46q1 2 3.5 5t4.5 5q-1 -9 -1 -17q0 -14 3 -26q4 -21 23 -31q10 -6 22 -6q7 0 14 2q30 6 79 42q42 31 72 69q4 4 4 9q0 6 -4.5 10t-10.5 4
q-8 0 -11 -5q-31 -37 -67 -65q-39 -29 -67 -36q-13 -3 -18 1q-8 5 -9 13q-2 6 -2 14q0 34 20 93q0 1 0.5 3t1.5 3q0 1 0.5 2l0.5 1v1q0 1 0.5 2l0.5 1q0 6 -4.5 10.5t-10.5 4.5zM55 138q1 0 3.5 -0.5t3.5 -0.5l15 -7l1 -1q-13 -19 -33 -45q-19 -25 -40 -44q-14 -11 -15 -12
l-1 -1q0 12 2 21q10 36 36 70q15 20 28 20z" />
    <glyph glyph-name="ae" unicode="&#xe6;" horiz-adv-x="365" 
d="M109 174q-9 0 -13 -10v-2q0 -1 -5 -9q-11 9 -25 11q-5 1 -10 1q-30 0 -53 -31q-29 -40 -40 -79q-4 -15 -4 -25q0 -5 1 -9q2 -8 7 -15q7 -9 17 -9q9 -1 21 7q1 1 19 16q21 19 42 45q0 1 0.5 2t1.5 1q-1 -5 -3 -11.5t-3 -11t-1 -7.5q-2 -9 -1 -13q0 -5 3 -9q2 -3 7.5 -5
t8.5 -1q7 2 11 8q1 2 3.5 5t3.5 4q3 6 4 7q4 -10 14 -18q21 -17 68 -17q65 0 140 55q16 12 31.5 25.5t23.5 21.5l7 7q3 3 3 9t-4 10.5t-10 4.5q-7 0 -10 -5q-23 -25 -57 -50q-68 -50 -125 -50q-36 0 -49 11q-10 8 -7 22q3 16 24 43q31 -6 51 -6q14 0 25 3q16 5 22 14
q8 11 4 23q-6 21 -33 28q-8 2 -13 2q-21 0 -41 -13q-19 -13 -33 -28q-6 -4 -8 -7q-6 -7 -18 -25l-2 -2q10 36 19 63l1 2v3q0 6 -4 10t-10 4h-1zM205 138h7q5 -1 12 -8q-2 -2 -6 -3q-7 -2 -18 -2t-24 2l2.5 2.5t2.5 1.5q10 7 24 7zM54 137h6q4 -1 8 -3l6 -3l2 -2l1 -1
q-12 -19 -33 -45q-23 -28 -39 -43q-14 -11 -15 -12q-1 0 -1.5 -0.5l-0.5 -0.5q0 7 3 20q12 40 35 71q14 19 28 19zM69 37z" />
    <glyph glyph-name="ccedilla" unicode="&#xe7;" horiz-adv-x="232" 
d="M80 182h-4q-18 -1 -42 -19t-43 -43.5t-25 -51.5q-1 -7 -1 -13q0 -23 15 -38q18 -18 58 -20q-5 -11 -13.5 -18.5t-14.5 -8.5l-7 -2q-12 -2 -12 -14q0 -6 4.5 -10t10.5 -4h3q6 1 13.5 4t23.5 18t22 36q53 7 119 55q17 12 33 25.5t23 21.5l7 8q4 4 4 10t-4 10t-10 4
q-7 0 -10 -4q-25 -26 -60 -52q-67 -50 -122 -50q-37 0 -48 11q-8 9 -6 26q4 18 21 40.5t36 36.5q19 13 27 13q7 0 10 -3q3 -2 4.5 -5t2.5 -6v-2q1 -5 5.5 -8.5t9.5 -3.5q6 0 10 4t4 10v3q-3 18 -18 30q-12 10 -26 10z" />
    <glyph glyph-name="egrave" unicode="&#xe8;" horiz-adv-x="230" 
d="M27 279h-1q-14 0 -14 -14q0 -6 4 -10l41 -44q4 -4 10 -4q14 0 14 14q0 7 -3 10l-41 43q-5 5 -10 5zM67 168q-20 0 -39 -13q-25 -17 -44 -41t-23 -49q-1 -5 -1 -11q0 -24 17 -38q22 -18 69 -18q64 0 141 56q16 12 31.5 25.5t23.5 20.5l7 8q4 4 4 10t-4 10t-10 4
q-8 0 -11 -4q-22 -26 -57 -51q-70 -50 -125 -50q-37 0 -50 11q-10 8 -7 22q3 16 24 43q31 -6 51 -6q14 0 25 3q16 5 22 14q8 11 5 24q-6 21 -34 28q-8 2 -12 2h-3zM69 139q1 0 3 -0.5t3 -0.5q8 -2 13 -7q-2 -2 -6 -3q-9 -3 -22 -3q-10 0 -21 2q1 1 2.5 2t2.5 2q12 8 25 8z
" />
    <glyph glyph-name="eacute" unicode="&#xe9;" horiz-adv-x="230" 
d="M124 285h-1q-7 0 -11 -6l-35 -44q-3 -3 -3 -9q0 -14 14 -14q9 0 12 5l34 45q3 3 3 9q0 14 -13 14zM67 168q-20 0 -39 -13q-25 -17 -44 -41t-23 -49q-1 -5 -1 -11q0 -24 17 -38q22 -18 69 -18q64 0 141 56q16 12 31.5 25.5t23.5 20.5l7 8q4 4 4 10t-4 10t-10 4
q-8 0 -11 -4q-22 -26 -57 -51q-70 -50 -125 -50q-37 0 -50 11q-10 8 -7 22q3 16 24 43q31 -6 51 -6q14 0 25 3q16 5 22 14q8 11 5 24q-6 21 -34 28q-8 2 -12 2h-3zM69 139q1 0 3 -0.5t3 -0.5q8 -2 13 -7q-2 -2 -6 -3q-9 -3 -22 -3q-10 0 -21 2q1 1 2.5 2t2.5 2q12 8 25 8z
" />
    <glyph glyph-name="ecircumflex" unicode="&#xea;" horiz-adv-x="230" 
d="M78 295q-8 0 -11 -5l-42 -50q-3 -3 -3 -9q0 -14 14 -14q8 0 11 5q17 19 30 35l30 -39q3 -5 11 -5q14 0 14 14q0 6 -4 10q-26 31 -38 51q-4 7 -12 7zM67 168q-20 0 -39 -13q-25 -17 -44 -41t-23 -49q-1 -5 -1 -11q0 -24 17 -38q22 -18 69 -18q64 0 141 56q16 12 31.5 25.5
t23.5 20.5l7 8q4 4 4 10t-4 10t-10 4q-8 0 -11 -4q-22 -26 -57 -51q-70 -50 -125 -50q-37 0 -50 11q-10 8 -7 22q3 16 24 43q31 -6 51 -6q14 0 25 3q16 5 22 14q8 11 5 24q-6 21 -34 28q-8 2 -12 2h-3zM69 139q1 0 3 -0.5t3 -0.5q8 -2 13 -7q-2 -2 -6 -3q-9 -3 -22 -3
q-10 0 -21 2q1 1 2.5 2t2.5 2q12 8 25 8z" />
    <glyph glyph-name="edieresis" unicode="&#xeb;" horiz-adv-x="230" 
d="M53 240q-11 0 -14 -10l-8 -24l-0.5 -2t-0.5 -3q0 -6 4.5 -10t10.5 -4q10 0 13 10l8 24q0 1 0.5 3l0.5 2q0 6 -4 10t-10 4zM102 240q-11 0 -14 -10l-8 -24l-0.5 -2t-0.5 -3q0 -6 4.5 -10t10.5 -4q10 0 13 10l8 24q0 1 0.5 3l0.5 2q0 6 -4 10t-10 4zM67 168q-20 0 -39 -13
q-25 -17 -44 -41t-23 -49q-1 -5 -1 -11q0 -24 17 -38q22 -18 69 -18q64 0 141 56q16 12 31.5 25.5t23.5 20.5l7 8q4 4 4 10t-4 10t-10 4q-8 0 -11 -4q-22 -26 -57 -51q-70 -50 -125 -50q-37 0 -50 11q-10 8 -7 22q3 16 24 43q31 -6 51 -6q14 0 25 3q16 5 22 14q8 11 5 24
q-6 21 -34 28q-8 2 -12 2h-3zM69 139q1 0 3 -0.5t3 -0.5q8 -2 13 -7q-2 -2 -6 -3q-9 -3 -22 -3q-10 0 -21 2q1 1 2.5 2t2.5 2q12 8 25 8z" />
    <glyph glyph-name="igrave" unicode="&#xec;" horiz-adv-x="239" 
d="M-24 244h-1q-14 0 -14 -14q0 -6 4 -10l41 -44q4 -4 10 -4q14 0 14 14q0 7 -3 10l-41 43q-5 5 -10 5zM11 132q-15 0 -15 -13q0 -3 -2 -20.5t-2 -28.5v-7q2 -42 31 -58q15 -9 35 -9q18 0 39 7q27 9 74 38q21 14 42.5 30.5t32.5 25.5l11 10q4 3 4 11q0 6 -4 10t-10 4t-10 -4
q-36 -34 -81 -63q-35 -24 -68 -35q-14 -5 -27.5 -5t-22.5 5q-15 8 -17 34v5q0 9 2 25.5t2 22.5v1q0 6 -4 10t-10 4z" />
    <glyph glyph-name="iacute" unicode="&#xed;" horiz-adv-x="239" 
d="M50 251h-1q-7 0 -11 -6l-35 -44q-3 -3 -3 -9q0 -14 14 -14q9 0 12 5l34 45q3 3 3 9q0 14 -13 14zM11 132q-15 0 -15 -13q0 -3 -2 -20.5t-2 -28.5v-7q2 -42 31 -58q15 -9 35 -9q18 0 39 7q27 9 74 38q21 14 42.5 30.5t32.5 25.5l11 10q4 3 4 11q0 6 -4 10t-10 4t-10 -4
q-36 -34 -81 -63q-35 -24 -68 -35q-14 -5 -27.5 -5t-22.5 5q-15 8 -17 34v5q0 9 2 25.5t2 22.5v1q0 6 -4 10t-10 4z" />
    <glyph glyph-name="icircumflex" unicode="&#xee;" horiz-adv-x="239" 
d="M21 251q-8 0 -11 -5l-42 -50q-3 -3 -3 -9q0 -14 14 -14q8 0 11 5q17 19 30 35l30 -39q3 -5 11 -5q14 0 14 14q0 6 -4 10q-26 31 -38 51q-3 7 -12 7zM11 132q-15 0 -15 -13q0 -3 -2 -20.5t-2 -28.5v-7q2 -42 31 -58q15 -9 35 -9q18 0 39 7q27 9 74 38q21 14 42.5 30.5
t32.5 25.5l11 10q4 3 4 11q0 6 -4 10t-10 4t-10 -4q-36 -34 -81 -63q-35 -24 -68 -35q-14 -5 -27.5 -5t-22.5 5q-15 8 -17 34v5q0 9 2 25.5t2 22.5v1q0 6 -4 10t-10 4z" />
    <glyph glyph-name="idieresis" unicode="&#xef;" horiz-adv-x="239" 
d="M4 225q-11 0 -14 -10l-8 -24q0 -1 -0.5 -3l-0.5 -2q0 -6 4.5 -10t10.5 -4q10 0 13 10l8 24l0.5 2t0.5 3q0 6 -4 10t-10 4zM53 225q-11 0 -14 -10l-8 -24q0 -1 -0.5 -3l-0.5 -2q0 -6 4.5 -10t10.5 -4q10 0 13 10l8 24l0.5 2t0.5 3q0 6 -4 10t-10 4zM11 132q-15 0 -15 -13
q0 -3 -2 -20.5t-2 -28.5v-7q2 -42 31 -58q15 -9 35 -9q18 0 39 7q27 9 74 38q21 14 42.5 30.5t32.5 25.5l11 10q4 3 4 11q0 6 -4 10t-10 4t-10 -4q-36 -34 -81 -63q-35 -24 -68 -35q-14 -5 -27.5 -5t-22.5 5q-15 8 -17 34v5q0 9 2 25.5t2 22.5v1q0 6 -4 10t-10 4z" />
    <glyph glyph-name="ntilde" unicode="&#xf1;" horiz-adv-x="273" 
d="M95 264q-6 0 -9 -1q-15 -4 -31 -22q-10 -12 -16 -12q-8 0 -22 15q-3 5 -11 5q-6 0 -10 -4t-4 -10t4 -10q23 -24 42 -24h5q16 2 32 20q11 12 18 14q9 2 24 -11q4 -4 10 -4q14 0 14 14q0 8 -5 11q-19 17 -38 19h-3zM111 160q-1 0 -2.5 -0.5t-2.5 -0.5q-6 -1 -11 -5
q-6 -4 -17 -17q-13 -16 -34 -51q-21 -34 -32 -49q0 -1 -1.5 -2.5l-2.5 -2.5v1q0 10 4 34l11 47l0.5 2l0.5 2q0 6 -4 10t-10 4q-11 0 -14 -10q-7 -24 -12 -50q-5 -32 -5 -39q0 -9 3 -18q4 -12 11 -16t16 -2q2 0 10 6q10 8 16 17q13 18 33 51q18 29 32 48q3 4 8 9q2 -6 2 -11
q1 -6 1 -21v-23q2 -33 7 -47q7 -16 12 -20q11 -9 24 -9q42 0 96 58q12 12 22.5 26t15.5 21l5 8q3 6 3 8q0 6 -4.5 10t-10.5 4q-9 0 -12 -6q-16 -26 -40 -52q-19 -20 -40 -34t-35 -14q-4 0 -5 1l-4 8q-3 9 -5 39q0 7 -0.5 23t-1.5 23q-2 14 -4 20q-4 13 -13 17q-6 3 -8 3h-2z
" />
    <glyph glyph-name="ograve" unicode="&#xf2;" horiz-adv-x="251" 
d="M27 279h-1q-14 0 -14 -14q0 -6 4 -10l41 -44q4 -4 10 -4q14 0 14 14q0 7 -3 10l-41 43q-5 5 -10 5zM71 182q-6 0 -18 -4q-18 -8 -26 -25q-3 -7 -3 -15q0 -12 6 -23q18 -34 51 -51q-22 -33 -46 -39q-9 -3 -13 -1t-5 4q-5 8 -4 29q1 7 2 15.5t2.5 15.5t2.5 13t2 10l1 3
q0 1 0.5 2.5l0.5 1.5q0 6 -4 10t-10 4q-10 0 -14 -10q-11 -32 -12 -64v-7q0 -23 10 -39q6 -10 20 -15q12 -4 29 1q38 11 66 57q11 -2 22 -2q24 0 48 8q22 7 44.5 18.5t33.5 19.5l11 8q6 4 6 11q0 6 -4 10t-10 4t-9 -3q-37 -27 -80 -40q-23 -7 -43 -7h-6q8 21 8 37t-7 29
q-19 34 -52 34zM73 154q15 0 25 -20q3 -4 3 -13q0 -15 -7 -32q-24 11 -39 39q-4 8 -1 14q4 8 10 10q4 2 8 2h1z" />
    <glyph glyph-name="oacute" unicode="&#xf3;" horiz-adv-x="251" 
d="M124 285h-1q-7 0 -11 -6l-35 -44q-3 -3 -3 -9q0 -14 14 -14q9 0 12 5l34 45q3 3 3 9q0 14 -13 14zM71 182q-6 0 -18 -4q-18 -8 -26 -25q-3 -7 -3 -15q0 -12 6 -23q18 -34 51 -51q-22 -33 -46 -39q-9 -3 -13 -1t-5 4q-5 8 -4 29q1 7 2 15.5t2.5 15.5t2.5 13t2 10l1 3
q0 1 0.5 2.5l0.5 1.5q0 6 -4 10t-10 4q-10 0 -14 -10q-11 -32 -12 -64v-7q0 -23 10 -39q6 -10 20 -15q12 -4 29 1q38 11 66 57q11 -2 22 -2q24 0 48 8q22 7 44.5 18.5t33.5 19.5l11 8q6 4 6 11q0 6 -4 10t-10 4t-9 -3q-37 -27 -80 -40q-23 -7 -43 -7h-6q8 21 8 37t-7 29
q-19 34 -52 34zM73 154q15 0 25 -20q3 -4 3 -13q0 -15 -7 -32q-24 11 -39 39q-4 8 -1 14q4 8 10 10q4 2 8 2h1z" />
    <glyph glyph-name="ocircumflex" unicode="&#xf4;" horiz-adv-x="251" 
d="M78 295q-8 0 -11 -5l-42 -50q-3 -3 -3 -9q0 -14 14 -14q8 0 11 5q17 19 30 35l30 -39q3 -5 11 -5q14 0 14 14q0 6 -4 10q-26 31 -38 51q-4 7 -12 7zM71 182q-6 0 -18 -4q-18 -8 -26 -25q-3 -7 -3 -15q0 -12 6 -23q18 -34 51 -51q-22 -33 -46 -39q-9 -3 -13 -1t-5 4
q-5 8 -4 29q1 7 2 15.5t2.5 15.5t2.5 13t2 10l1 3q0 1 0.5 2.5l0.5 1.5q0 6 -4 10t-10 4q-10 0 -14 -10q-11 -32 -12 -64v-7q0 -23 10 -39q6 -10 20 -15q12 -4 29 1q38 11 66 57q11 -2 22 -2q24 0 48 8q22 7 44.5 18.5t33.5 19.5l11 8q6 4 6 11q0 6 -4 10t-10 4t-9 -3
q-37 -27 -80 -40q-23 -7 -43 -7h-6q8 21 8 37t-7 29q-19 34 -52 34zM73 154q15 0 25 -20q3 -4 3 -13q0 -15 -7 -32q-24 11 -39 39q-4 8 -1 14q4 8 10 10q4 2 8 2h1z" />
    <glyph glyph-name="otilde" unicode="&#xf5;" horiz-adv-x="251" 
d="M95 264q-6 0 -9 -1q-15 -4 -31 -22q-10 -12 -16 -12q-8 0 -22 15q-3 5 -11 5q-6 0 -10 -4t-4 -10t4 -10q23 -24 42 -24h5q16 2 32 20q11 12 18 14q9 2 24 -11q4 -4 10 -4q14 0 14 14q0 8 -5 11q-19 17 -38 19h-3zM71 182q-6 0 -18 -4q-18 -8 -26 -25q-3 -7 -3 -15
q0 -12 6 -23q18 -34 51 -51q-22 -33 -46 -39q-9 -3 -13 -1t-5 4q-5 8 -4 29q1 7 2 15.5t2.5 15.5t2.5 13t2 10l1 3q0 1 0.5 2.5l0.5 1.5q0 6 -4 10t-10 4q-10 0 -14 -10q-11 -32 -12 -64v-7q0 -23 10 -39q6 -10 20 -15q12 -4 29 1q38 11 66 57q11 -2 22 -2q24 0 48 8
q22 7 44.5 18.5t33.5 19.5l11 8q6 4 6 11q0 6 -4 10t-10 4t-9 -3q-37 -27 -80 -40q-23 -7 -43 -7h-6q8 21 8 37t-7 29q-19 34 -52 34zM73 154q15 0 25 -20q3 -4 3 -13q0 -15 -7 -32q-24 11 -39 39q-4 8 -1 14q4 8 10 10q4 2 8 2h1z" />
    <glyph glyph-name="odieresis" unicode="&#xf6;" horiz-adv-x="251" 
d="M53 247q-11 0 -14 -10l-8 -24q0 -1 -0.5 -3l-0.5 -2q0 -6 4.5 -10t10.5 -4q10 0 13 10l8 24l0.5 2t0.5 3q0 6 -4 10t-10 4zM102 247q-11 0 -14 -10l-8 -24q0 -1 -0.5 -3l-0.5 -2q0 -6 4.5 -10t10.5 -4q10 0 13 10l8 24l0.5 2t0.5 3q0 6 -4 10t-10 4zM71 182q-6 0 -18 -4
q-18 -8 -26 -25q-3 -7 -3 -15q0 -12 6 -23q18 -34 51 -51q-22 -33 -46 -39q-9 -3 -13 -1t-5 4q-5 8 -4 29q1 7 2 15.5t2.5 15.5t2.5 13t2 10l1 3q0 1 0.5 2.5l0.5 1.5q0 6 -4 10t-10 4q-10 0 -14 -10q-11 -32 -12 -64v-7q0 -23 10 -39q6 -10 20 -15q12 -4 29 1q38 11 66 57
q11 -2 22 -2q24 0 48 8q22 7 44.5 18.5t33.5 19.5l11 8q6 4 6 11q0 6 -4 10t-10 4t-9 -3q-37 -27 -80 -40q-23 -7 -43 -7h-6q8 21 8 37t-7 29q-19 34 -52 34zM73 154q15 0 25 -20q3 -4 3 -13q0 -15 -7 -32q-24 11 -39 39q-4 8 -1 14q4 8 10 10q4 2 8 2h1z" />
    <glyph glyph-name="divide" unicode="&#xf7;" horiz-adv-x="401" 
d="M193 253q-10 0 -13 -10l-6 -21v-2q-1 -2 -1 -3q0 -14 14 -14q11 0 14 10l6 22q0 1 0.5 2t0.5 2q0 14 -14 14h-1zM65 183q-6 0 -10.5 -4.5t-4.5 -10.5q0 -14 15 -14l272 -1q14 0 14 15q0 14 -14 14zM179 136q-11 0 -14 -10l-6 -22l-1 -2v-2q0 -14 15 -14q10 0 13 10l7 21
v5q0 14 -14 14z" />
    <glyph glyph-name="oslash" unicode="&#xf8;" horiz-adv-x="251" 
d="M71 182q-6 0 -18 -4q-18 -8 -26 -25q-3 -7 -3 -15q0 -12 6 -23q8 -15 19 -26l-36 -36v4q1 7 2 15.5t2.5 15.5t2.5 13t2 10l1 3l0.5 2l0.5 2q0 6 -4 10t-10 4q-10 0 -14 -10q-11 -32 -12 -64q-1 -17 3 -31l-47 -46q-10 -11 0 -21q4 -4 10.5 -4t10.5 4l42 42q5 -3 11 -5
q12 -4 29 1q38 11 66 57q11 -2 22 -2q24 0 48 8q22 7 44.5 18.5t33.5 19.5l11 8q6 4 6 11q0 6 -4 10t-10 4t-9 -3q-37 -27 -80 -40q-23 -7 -43 -7h-6q8 21 8 37v10l54 54q4 4 4 10.5t-4 10.5q-10 10 -21 -1l-46 -46q-19 25 -46 25zM97 137l-29 -29q-7 9 -13 20q-4 8 -1 14
q4 8 10 10q4 2 8 2h1q14 0 24 -17zM71 70l10 -6q-22 -33 -46 -39q-7 -2 -11 -2zM96 95l-2 -6q-1 1 -3 1z" />
    <glyph glyph-name="ugrave" unicode="&#xf9;" horiz-adv-x="328" 
d="M27 279h-1q-14 0 -14 -14q0 -6 4 -10l41 -44q4 -4 10 -4q14 0 14 14q0 7 -3 10l-41 43q-5 5 -10 5zM149 147q-9 0 -12 -6q-6 -9 -16 -22.5t-39.5 -43.5t-56.5 -45q-9 -5 -12 -5q-3 7 -2 27q1 12 4.5 27.5t5.5 24.5l3 10l0.5 1.5t0.5 2.5q0 6 -4.5 10t-10.5 4
q-10 0 -13 -10q-12 -35 -15 -67q-1 -9 -1 -15q0 -17 8 -30q9 -13 22 -13q12 0 28 8q43 24 85 72q-1 -8 -1 -15q0 -20 6 -35q8 -18 25 -26q9 -4 22 -4q7 0 14 1q69 14 156 110q4 4 4 10t-4.5 10t-10.5 4q-7 0 -10 -4q-35 -38 -75.5 -67.5t-65.5 -34.5q-12 -3 -19 1
q-5 3 -9 11q-3 9 -3 25q0 27 10 66v4q0 6 -4 10t-10 4z" />
    <glyph glyph-name="uacute" unicode="&#xfa;" horiz-adv-x="328" 
d="M124 285h-1q-7 0 -11 -6l-35 -44q-3 -3 -3 -9q0 -14 14 -14q9 0 12 5l34 45q3 3 3 9q0 14 -13 14zM149 147q-9 0 -12 -6q-6 -9 -16 -22.5t-39.5 -43.5t-56.5 -45q-9 -5 -12 -5q-3 7 -2 27q1 12 4.5 27.5t5.5 24.5l3 10l0.5 1.5t0.5 2.5q0 6 -4.5 10t-10.5 4
q-10 0 -13 -10q-12 -35 -15 -67q-1 -9 -1 -15q0 -17 8 -30q9 -13 22 -13q12 0 28 8q43 24 85 72q-1 -8 -1 -15q0 -20 6 -35q8 -18 25 -26q9 -4 22 -4q7 0 14 1q69 14 156 110q4 4 4 10t-4.5 10t-10.5 4q-7 0 -10 -4q-35 -38 -75.5 -67.5t-65.5 -34.5q-12 -3 -19 1
q-5 3 -9 11q-3 9 -3 25q0 27 10 66v4q0 6 -4 10t-10 4z" />
    <glyph glyph-name="ucircumflex" unicode="&#xfb;" horiz-adv-x="328" 
d="M78 295q-8 0 -11 -5l-42 -50q-3 -3 -3 -9q0 -14 14 -14q8 0 11 5q17 19 30 35l30 -39q3 -5 11 -5q14 0 14 14q0 6 -4 10q-26 31 -38 51q-4 7 -12 7zM149 147q-9 0 -12 -6q-6 -9 -16 -22.5t-39.5 -43.5t-56.5 -45q-9 -5 -12 -5q-3 7 -2 27q1 12 4.5 27.5t5.5 24.5l3 10
l0.5 1.5t0.5 2.5q0 6 -4.5 10t-10.5 4q-10 0 -13 -10q-12 -35 -15 -67q-1 -9 -1 -15q0 -17 8 -30q9 -13 22 -13q12 0 28 8q43 24 85 72q-1 -8 -1 -15q0 -20 6 -35q8 -18 25 -26q9 -4 22 -4q7 0 14 1q69 14 156 110q4 4 4 10t-4.5 10t-10.5 4q-7 0 -10 -4
q-35 -38 -75.5 -67.5t-65.5 -34.5q-12 -3 -19 1q-5 3 -9 11q-3 9 -3 25q0 27 10 66v4q0 6 -4 10t-10 4z" />
    <glyph glyph-name="udieresis" unicode="&#xfc;" horiz-adv-x="328" 
d="M53 247q-11 0 -14 -10l-8 -24q0 -1 -0.5 -3l-0.5 -2q0 -6 4.5 -10t10.5 -4q10 0 13 10l8 24l0.5 2t0.5 3q0 6 -4 10t-10 4zM102 247q-11 0 -14 -10l-8 -24q0 -1 -0.5 -3l-0.5 -2q0 -6 4.5 -10t10.5 -4q10 0 13 10l8 24l0.5 2t0.5 3q0 6 -4 10t-10 4zM149 147q-9 0 -12 -6
q-6 -9 -16 -22.5t-39.5 -43.5t-56.5 -45q-9 -5 -12 -5q-3 7 -2 27q1 12 4.5 27.5t5.5 24.5l3 10l0.5 1.5t0.5 2.5q0 6 -4.5 10t-10.5 4q-10 0 -13 -10q-12 -35 -15 -67q-1 -9 -1 -15q0 -17 8 -30q9 -13 22 -13q12 0 28 8q43 24 85 72q-1 -8 -1 -15q0 -20 6 -35q8 -18 25 -26
q9 -4 22 -4q7 0 14 1q69 14 156 110q4 4 4 10t-4.5 10t-10.5 4q-7 0 -10 -4q-35 -38 -75.5 -67.5t-65.5 -34.5q-12 -3 -19 1q-5 3 -9 11q-3 9 -3 25q0 27 10 66v4q0 6 -4 10t-10 4z" />
    <glyph glyph-name="yacute" unicode="&#xfd;" horiz-adv-x="323" 
d="M124 285h-1q-7 0 -11 -6l-35 -44q-3 -3 -3 -9q0 -14 14 -14q9 0 12 5l34 45q3 3 3 9q0 14 -13 14zM146 179q-5 0 -9 -3.5t-5 -7.5q-3 -12 -14 -34q-13 -25 -29 -52q-18 -30 -36 -46t-26 -16q-11 1 -14 7q-4 8 -4 22q0 21 14 65l0.5 2l0.5 2q0 6 -4 10t-10 4
q-11 0 -14 -10q-15 -48 -16 -73q0 -23 9 -37q12 -18 36 -20h2q23 0 46 23q21 21 40 51q2 3 13 22q-2 -14 -8 -64q-31 -24 -73 -64q-71 -70 -96 -119q-12 -24 -12 -41q0 -4 1 -9q2 -12 12 -21t24 -12q11 -2 21 -2q22 0 41 10q24 14 46 45q34 52 53 141q3 15 10 56
q40 30 60 43q80 50 126 53q5 0 9.5 4.5t4.5 9.5q0 6 -4 10t-10 4h-2q-57 -4 -139 -57q-13 -8 -39 -26q3 29 5.5 58t2.5 43l1 15q0 6 -4 10t-10 4zM111 -19q-2 -12 -4 -22q-20 -89 -49 -133q-18 -26 -35 -35q-15 -8 -29 -8q-7 0 -14 2q-9 2 -11.5 4.5t-2.5 8.5q0 10 9 30
q25 50 90 112q6 6 46 41z" />
    <glyph glyph-name="ydieresis" unicode="&#xff;" horiz-adv-x="323" 
d="M53 240q-11 0 -14 -10l-8 -24l-0.5 -2t-0.5 -3q0 -6 4.5 -10t10.5 -4q10 0 13 10l8 24q0 1 0.5 3l0.5 2q0 6 -4 10t-10 4zM102 240q-11 0 -14 -10l-8 -24l-0.5 -2t-0.5 -3q0 -6 4.5 -10t10.5 -4q10 0 13 10l8 24q0 1 0.5 3l0.5 2q0 6 -4 10t-10 4zM146 179q-5 0 -9 -3.5
t-5 -7.5q-3 -12 -14 -34q-13 -25 -29 -52q-18 -30 -36 -46t-26 -16q-11 1 -14 7q-4 8 -4 22q0 21 14 65l0.5 2l0.5 2q0 6 -4 10t-10 4q-11 0 -14 -10q-15 -48 -16 -73q0 -23 9 -37q12 -18 36 -20h2q23 0 46 23q21 21 40 51q2 3 13 22q-2 -14 -8 -64q-31 -24 -73 -64
q-71 -70 -96 -119q-12 -24 -12 -41q0 -4 1 -9q2 -12 12 -21t24 -12q11 -2 21 -2q22 0 41 10q24 14 46 45q34 52 53 141q3 15 10 56q40 30 60 43q80 50 126 53q5 0 9.5 4.5t4.5 9.5q0 6 -4 10t-10 4h-2q-57 -4 -139 -57q-13 -8 -39 -26q3 29 5.5 58t2.5 43l1 15q0 6 -4 10
t-10 4zM111 -19q-2 -12 -4 -22q-20 -89 -49 -133q-18 -26 -35 -35q-15 -8 -29 -8q-7 0 -14 2q-9 2 -11.5 4.5t-2.5 8.5q0 10 9 30q25 50 90 112q6 6 46 41z" />
    </font>
</defs>
</svg>
