<svg width="260" height="260" viewBox="0 0 260 277" fill="none" xmlns="http://www.w3.org/2000/svg">
<g filter="url(#filter0_d_124_431)">
<path d="M194 34H74C51.9086 34 34 51.9086 34 74V194C34 216.091 51.9086 234 74 234H194C216.091 234 234 216.091 234 194V74C234 51.9086 216.091 34 194 34Z" fill="#EDEEF2"/>
</g>
<g filter="url(#filter1_d_124_431)">
<path d="M194 34H74C51.9086 34 34 51.9086 34 74V194C34 216.091 51.9086 234 74 234H194C216.091 234 234 216.091 234 194V74C234 51.9086 216.091 34 194 34Z" fill="url(#paint0_linear_124_431)"/>
</g>
<path d="M155.447 112.576C155.451 112.615 159.686 155.716 135.319 162.934C135.319 162.934 106.184 157.259 112.774 113.195C103.394 118.986 95.8634 128.379 91.481 139.833C100.325 141.42 107.063 149.168 107.063 158.476C107.063 160.012 106.859 161.503 106.512 162.936C105.069 168.898 100.816 173.768 95.231 176.038C95.5065 176.029 95.7742 175.998 96.0516 175.998C108.586 175.998 118.783 186.217 118.783 198.777V204.986C118.783 208.608 117.88 211.954 116.371 214.683C115.419 216.404 114.224 217.869 112.848 219.005H134.617H155.848C154.527 217.914 153.373 216.516 152.44 214.881C150.862 212.115 149.914 208.698 149.914 204.986V198.777C149.914 186.217 160.112 175.998 172.643 175.998C173.496 175.998 174.342 176.054 175.173 176.145C169.444 173.927 165.063 169.003 163.597 162.936C163.247 161.503 163.046 160.012 163.046 158.476C163.046 149.454 169.378 141.896 177.813 139.995C173.287 128.055 165.341 118.329 155.447 112.576Z" fill="black"/>
<path d="M155.447 112.576C155.439 112.573 155.437 112.573 155.433 112.571C163.321 106.206 168.383 96.4607 168.383 85.5218C168.383 81.4569 167.649 77.5709 166.367 73.9473C172.043 71.7175 176.067 66.1946 176.067 59.7191C176.067 51.2744 169.234 44.4276 160.807 44.4276C154.626 44.4276 149.312 48.1193 146.916 53.4167C142.85 51.739 138.4 50.7981 133.73 50.7981C129.627 50.7981 125.708 51.5504 122.055 52.8626C119.545 47.8646 114.394 44.4276 108.429 44.4276C100.001 44.4276 93.1687 51.2744 93.1687 59.7191C93.1687 65.5997 96.4861 70.6969 101.344 73.2552C99.9005 77.0751 99.076 81.1964 99.076 85.5238C99.076 96.8204 104.485 106.828 112.821 113.169C112.809 113.177 112.796 113.183 112.784 113.189C112.891 113.28 122.531 121.523 134.138 121.523C145.801 121.521 155.433 112.588 155.447 112.576Z" fill="black"/>
<path d="M181.963 180.838C181.256 180.469 180.519 180.148 179.763 179.86C177.545 179.022 175.155 178.542 172.645 178.542C161.497 178.542 152.459 187.601 152.459 198.773C152.459 199.829 152.459 203.909 152.459 204.983C152.459 208.289 153.289 211.328 154.671 213.723C156.521 216.936 159.363 219.001 162.553 219.001H181.963H182.74C188.314 219.001 192.834 212.724 192.834 204.983C192.834 203.908 192.834 199.829 192.834 198.773C192.834 190.97 188.421 184.215 181.963 180.838Z" fill="black"/>
<path d="M116.239 204.985C116.239 203.909 116.239 199.831 116.239 198.775C116.239 187.603 107.201 178.544 96.0514 178.544C93.7254 178.544 91.5021 178.958 89.4224 179.683C88.6852 179.942 87.9674 180.243 87.2729 180.58C80.5275 183.855 75.8657 190.76 75.8657 198.775C75.8657 199.831 75.8657 203.911 75.8657 204.985C75.8657 212.726 80.3859 219.003 85.9595 219.003H87.2749H106.149C109.412 219.003 112.305 216.843 114.152 213.505C115.453 211.139 116.239 208.192 116.239 204.985Z" fill="black"/>
<path d="M190.211 144.318C187.841 142.93 185.101 142.112 182.164 142.079C182.098 142.079 182.032 142.067 181.962 142.067C180.837 142.067 179.735 142.184 178.672 142.399C171.205 143.927 165.593 150.543 165.593 158.476C165.593 160.024 165.818 161.517 166.219 162.936C168.066 169.493 173.865 174.368 180.888 174.827C181.245 174.853 181.602 174.882 181.964 174.882C191.005 174.882 198.336 167.537 198.336 158.476C198.334 152.43 195.065 147.164 190.211 144.318Z" fill="black"/>
<path d="M94.853 107.332V102.588V82.3356H91.8227V98.3231C91.4793 98.1306 91.1321 97.9459 90.748 97.7982V82.3356H87.7157V97.18C87.5605 97.1742 87.4325 97.1178 87.2754 97.1178C87.0949 97.1178 86.9475 97.18 86.769 97.1936V82.3376H83.7349V97.8332C83.374 97.9751 83.0481 98.1462 82.7261 98.325V82.3376H79.6938V102.588V107.332C79.6938 109.414 81.3642 111.163 83.7349 112.089V140.063C85.153 139.721 86.6255 139.52 88.1484 139.52C88.8778 139.52 89.5975 139.573 90.3056 139.651V112.333C92.977 111.49 94.853 109.571 94.853 107.332Z" fill="black"/>
<path d="M88.1483 142.067C86.6157 142.067 85.1413 142.294 83.7348 142.687C76.8381 144.619 71.7747 150.947 71.7747 158.474C71.7747 167.24 78.6403 174.378 87.2733 174.835C87.5643 174.851 87.8514 174.88 88.1483 174.88C88.2181 174.88 88.2879 174.868 88.3578 174.868C95.7628 174.775 101.969 169.757 103.891 162.932C104.291 161.515 104.52 160.02 104.52 158.472C104.52 150.249 98.4788 143.463 90.6062 142.271C90.5054 142.256 90.4064 142.238 90.3075 142.226C89.5974 142.133 88.8816 142.067 88.1483 142.067Z" fill="black"/>
<path d="M190.212 85.2011C190.212 82.9732 188.409 81.1692 186.19 81.1692C184.855 81.1692 183.684 81.8263 182.95 82.8274C180.071 85.1369 176.312 90.5898 176.312 103.403C176.312 115.075 179.433 121.577 182.165 125.032V139.53C185.047 139.559 187.775 140.251 190.212 141.443V85.2011Z" fill="black"/>
<defs>
<filter id="filter0_d_124_431" x="17" y="17" width="240" height="240" filterUnits="userSpaceOnUse" color-interpolation-filters="sRGB">
<feFlood flood-opacity="0" result="BackgroundImageFix"/>
<feColorMatrix in="SourceAlpha" type="matrix" values="0 0 0 0 0 0 0 0 0 0 0 0 0 0 0 0 0 0 127 0" result="hardAlpha"/>
<feOffset dx="3" dy="3"/>
<feGaussianBlur stdDeviation="10"/>
<feColorMatrix type="matrix" values="0 0 0 0 0.141176 0 0 0 0 0.254902 0 0 0 0 0.364706 0 0 0 0.302 0"/>
<feBlend mode="normal" in2="BackgroundImageFix" result="effect1_dropShadow_124_431"/>
<feBlend mode="normal" in="SourceGraphic" in2="effect1_dropShadow_124_431" result="shape"/>
</filter>
<filter id="filter1_d_124_431" x="0" y="0" width="260" height="260" filterUnits="userSpaceOnUse" color-interpolation-filters="sRGB">
<feFlood flood-opacity="0" result="BackgroundImageFix"/>
<feColorMatrix in="SourceAlpha" type="matrix" values="0 0 0 0 0 0 0 0 0 0 0 0 0 0 0 0 0 0 127 0" result="hardAlpha"/>
<feOffset dx="-4" dy="-4"/>
<feGaussianBlur stdDeviation="15"/>
<feColorMatrix type="matrix" values="0 0 0 0 1 0 0 0 0 1 0 0 0 0 1 0 0 0 1 0"/>
<feBlend mode="normal" in2="BackgroundImageFix" result="effect1_dropShadow_124_431"/>
<feBlend mode="normal" in="SourceGraphic" in2="effect1_dropShadow_124_431" result="shape"/>
</filter>
<linearGradient id="paint0_linear_124_431" x1="226.4" y1="226.4" x2="-22.4" y2="13.2" gradientUnits="userSpaceOnUse">
<stop stop-color="#EDB4BF"/>
<stop offset="1" stop-color="#E5E6EC"/>
</linearGradient>
</defs>
</svg>
