<svg width="260" height="260" viewBox="0 0 260 260" fill="none" xmlns="http://www.w3.org/2000/svg">
<g filter="url(#filter0_d_124_414)">
<path d="M194 34H74C51.9086 34 34 51.9086 34 74V194C34 216.091 51.9086 234 74 234H194C216.091 234 234 216.091 234 194V74C234 51.9086 216.091 34 194 34Z" fill="#EDEEF2"/>
</g>
<g filter="url(#filter1_d_124_414)">
<path d="M194 34H74C51.9086 34 34 51.9086 34 74V194C34 216.091 51.9086 234 74 234H194C216.091 234 234 216.091 234 194V74C234 51.9086 216.091 34 194 34Z" fill="url(#paint0_linear_124_414)"/>
</g>
<defs>
<filter id="filter0_d_124_414" x="17" y="17" width="240" height="240" filterUnits="userSpaceOnUse" color-interpolation-filters="sRGB">
<feFlood flood-opacity="0" result="BackgroundImageFix"/>
<feColorMatrix in="SourceAlpha" type="matrix" values="0 0 0 0 0 0 0 0 0 0 0 0 0 0 0 0 0 0 127 0" result="hardAlpha"/>
<feOffset dx="3" dy="3"/>
<feGaussianBlur stdDeviation="10"/>
<feColorMatrix type="matrix" values="0 0 0 0 0.141176 0 0 0 0 0.254902 0 0 0 0 0.364706 0 0 0 0.302 0"/>
<feBlend mode="normal" in2="BackgroundImageFix" result="effect1_dropShadow_124_414"/>
<feBlend mode="normal" in="SourceGraphic" in2="effect1_dropShadow_124_414" result="shape"/>
</filter>
<filter id="filter1_d_124_414" x="0" y="0" width="260" height="260" filterUnits="userSpaceOnUse" color-interpolation-filters="sRGB">
<feFlood flood-opacity="0" result="BackgroundImageFix"/>
<feColorMatrix in="SourceAlpha" type="matrix" values="0 0 0 0 0 0 0 0 0 0 0 0 0 0 0 0 0 0 127 0" result="hardAlpha"/>
<feOffset dx="-4" dy="-4"/>
<feGaussianBlur stdDeviation="15"/>
<feColorMatrix type="matrix" values="0 0 0 0 1 0 0 0 0 1 0 0 0 0 1 0 0 0 1 0"/>
<feBlend mode="normal" in2="BackgroundImageFix" result="effect1_dropShadow_124_414"/>
<feBlend mode="normal" in="SourceGraphic" in2="effect1_dropShadow_124_414" result="shape"/>
</filter>
<linearGradient id="paint0_linear_124_414" x1="226.4" y1="226.4" x2="-22.4" y2="13.2" gradientUnits="userSpaceOnUse">
<stop stop-color="#EDB4BF"/>
<stop offset="1" stop-color="#E5E6EC"/>
</linearGradient>
</defs>
</svg>
