<svg width="29" height="25" xmlns="http://www.w3.org/2000/svg">
<defs>
<symbol id="" viewBox="0 0 300 300" fill="#000">
<path d="M182 175.2L146.6 139.8C159.8 124.999 168 105.4 168 83.9996C168 37.7996 130.4 0.199646 84.2004 0.199646C38.0004 0.199646 0.400391 37.7996 0.400391 83.9996C0.400391 130.2 38.0004 167.8 84.2004 167.8C100.601 167.8 115.8 162.999 128.6 155L165.4 191.8C167.6 194 170.6 195.199 173.601 195.199C176.6 195.199 179.601 194 181.801 191.8C186.6 187.2 186.6 179.799 182.001 175.2L182 175.2ZM23.8 84C23.8 50.7996 50.8007 23.6 84.2 23.6C117.599 23.6 144.4 50.8 144.4 84C144.4 117.2 117.399 144.4 84.2 144.4C51.0007 144.4 23.8 117.399 23.8 84Z" />
</symbol>
</defs>
</svg>


