<svg width="29" height="25"  fill="#575F6B" xmlns="http://www.w3.org/2000/svg">
<defs>

<symbol id="home" viewBox="0 0 29 25">
<title>Home icon</title>
<path d="M11.6603 24.57V16.05H17.3403V24.57H24.4403V13.21H28.7003L14.5003 0.430008L0.300293 13.21H4.56029V24.57H11.6603Z" />
</symbol>

<symbol id="home" viewBox="0 0 29 25">
<title>Bookmark icon</title>
<path d="m186.55520.78c-5.7734-0.54688-10.176-5.4062-10.152-11.203v-459.2c0.003906-6.18365.0156-11.199 11.203-11.199h324.8-0.003906c6.1875 0 11.199 5.015611.203 11.199v459.2c0.003907 4.1523-2.2891 7.9648-5.957 9.9102-3.6681.9453-8.1133 1.6992-11.543-0.63281l-156.1-107.62-156.1107.62c-2.1484 1.4766-4.75 2.1562-7.3477 1.9258zm12.25-32.375144.9-99.926c3.8008-2.5859 8.8008-2.5859 12.602 0l144.999.926v-426.82h-302.4z" />
</symbol>

</defs>
</svg>


